<svg width="40" height="40" viewBox="0 0 40 40" fill="none" xmlns="http://www.w3.org/2000/svg">
<g filter="url(#filter0_bi_4377_4524)">
<rect y="-0.000488281" width="40" height="40" rx="20" fill="url(#paint0_linear_4377_4524)" fill-opacity="0.12"/>
<rect x="0.3" y="0.299512" width="39.4" height="39.4" rx="19.7" stroke="url(#paint1_linear_4377_4524)" stroke-opacity="0.3" stroke-width="0.6"/>
</g>
<mask id="mask0_4377_4524" style="mask-type:alpha" maskUnits="userSpaceOnUse" x="0" y="-1" width="40" height="41">
<rect y="-0.000488281" width="40" height="40" rx="20" fill="#181D4B"/>
<rect y="-0.000488281" width="40" height="40" rx="20" fill="url(#paint2_linear_4377_4524)" fill-opacity="0.52"/>
</mask>
<g mask="url(#mask0_4377_4524)">
</g>
<path d="M12.265 10.9995L11 14.2355V27.4585H15.502V28.9995L18.033 29.8495L20.425 27.4585H24.083L29.006 22.5345V10.9995H12.265ZM27.317 21.6905L24.504 24.5045H20.002L17.611 26.8955V24.5045H13.813V12.6875H27.317V21.6905ZM24.505 15.9235V20.8465H22.817V15.9235H24.505ZM20.003 15.9235V20.8465H18.315V15.9235H20.003Z" fill="white"/>
<defs>
<filter id="filter0_bi_4377_4524" x="-8" y="-8.00049" width="56" height="56" filterUnits="userSpaceOnUse" color-interpolation-filters="sRGB">
<feFlood flood-opacity="0" result="BackgroundImageFix"/>
<feGaussianBlur in="BackgroundImage" stdDeviation="4"/>
<feComposite in2="SourceAlpha" operator="in" result="effect1_backgroundBlur_4377_4524"/>
<feBlend mode="normal" in="SourceGraphic" in2="effect1_backgroundBlur_4377_4524" result="shape"/>
<feColorMatrix in="SourceAlpha" type="matrix" values="0 0 0 0 0 0 0 0 0 0 0 0 0 0 0 0 0 0 127 0" result="hardAlpha"/>
<feOffset dx="1" dy="1"/>
<feGaussianBlur stdDeviation="2"/>
<feComposite in2="hardAlpha" operator="arithmetic" k2="-1" k3="1"/>
<feColorMatrix type="matrix" values="0 0 0 0 1 0 0 0 0 1 0 0 0 0 1 0 0 0 1 0"/>
<feBlend mode="normal" in2="shape" result="effect2_innerShadow_4377_4524"/>
</filter>
<linearGradient id="paint0_linear_4377_4524" x1="36.6667" y1="32.9995" x2="-3.01136e-06" y2="4.33284" gradientUnits="userSpaceOnUse">
<stop stop-color="white"/>
<stop offset="1" stop-color="white" stop-opacity="0.26"/>
</linearGradient>
<linearGradient id="paint1_linear_4377_4524" x1="49.6667" y1="47.3328" x2="8" y2="14.3328" gradientUnits="userSpaceOnUse">
<stop stop-color="white"/>
<stop offset="1" stop-color="white" stop-opacity="0"/>
</linearGradient>
<linearGradient id="paint2_linear_4377_4524" x1="36.6667" y1="32.9995" x2="11.3333" y2="7.66618" gradientUnits="userSpaceOnUse">
<stop stop-color="#3333FF"/>
<stop offset="1" stop-color="#101647" stop-opacity="0.24"/>
</linearGradient>
</defs>
</svg>
