<svg width="40" height="40" viewBox="0 0 40 40" fill="none" xmlns="http://www.w3.org/2000/svg">
<g filter="url(#filter0_bi_4377_4508)">
<rect y="-0.000488281" width="40" height="40" rx="20" fill="url(#paint0_linear_4377_4508)" fill-opacity="0.12"/>
<rect x="0.3" y="0.299512" width="39.4" height="39.4" rx="19.7" stroke="url(#paint1_linear_4377_4508)" stroke-opacity="0.3" stroke-width="0.6"/>
</g>
<mask id="mask0_4377_4508" style="mask-type:alpha" maskUnits="userSpaceOnUse" x="0" y="-1" width="40" height="41">
<rect y="-0.000488281" width="40" height="40" rx="20" fill="#181D4B"/>
<rect y="-0.000488281" width="40" height="40" rx="20" fill="url(#paint2_linear_4377_4508)" fill-opacity="0.52"/>
</mask>
<g mask="url(#mask0_4377_4508)">
</g>
<path d="M28.95 16.3235C28.9399 15.5661 28.7981 14.8163 28.531 14.1075C28.2993 13.5097 27.9455 12.9667 27.4922 12.5133C27.0388 12.06 26.4958 11.7062 25.898 11.4745C25.1983 11.2119 24.4592 11.0699 23.712 11.0545C22.75 11.0115 22.445 10.9995 20.003 10.9995C17.561 10.9995 17.248 10.9995 16.293 11.0545C15.5462 11.07 14.8073 11.212 14.108 11.4745C13.5101 11.706 12.967 12.0598 12.5136 12.5131C12.0602 12.9665 11.7065 13.5096 11.475 14.1075C11.2118 14.8066 11.0701 15.5456 11.056 16.2925C11.013 17.2555 11 17.5605 11 20.0025C11 22.4445 11 22.7565 11.056 23.7125C11.071 24.4605 11.212 25.1985 11.475 25.8995C11.7069 26.4973 12.0609 27.0401 12.5144 27.4933C12.968 27.9465 13.5111 28.3001 14.109 28.5315C14.8064 28.8047 15.5454 28.9569 16.294 28.9815C17.257 29.0245 17.562 29.0375 20.004 29.0375C22.446 29.0375 22.759 29.0375 23.714 28.9815C24.4612 28.9668 25.2004 28.8251 25.9 28.5625C26.4977 28.3306 27.0405 27.9767 27.4938 27.5234C27.9472 27.07 28.3011 26.5272 28.533 25.9295C28.796 25.2295 28.937 24.4915 28.952 23.7425C28.995 22.7805 29.008 22.4755 29.008 20.0325C29.006 17.5905 29.006 17.2805 28.95 16.3235ZM19.997 24.6205C17.443 24.6205 15.374 22.5515 15.374 19.9975C15.374 17.4435 17.443 15.3745 19.997 15.3745C21.2231 15.3745 22.399 15.8616 23.266 16.7286C24.1329 17.5955 24.62 18.7714 24.62 19.9975C24.62 21.2236 24.1329 22.3995 23.266 23.2665C22.399 24.1334 21.2231 24.6205 19.997 24.6205ZM24.804 16.2815C24.6624 16.2816 24.5222 16.2539 24.3913 16.1997C24.2605 16.1456 24.1416 16.0662 24.0414 15.9661C23.9413 15.8659 23.8619 15.747 23.8078 15.6162C23.7537 15.4854 23.7259 15.3451 23.726 15.2035C23.726 15.062 23.7539 14.9219 23.808 14.7912C23.8622 14.6604 23.9415 14.5417 24.0416 14.4416C24.1416 14.3415 24.2604 14.2622 24.3912 14.208C24.5219 14.1539 24.662 14.126 24.8035 14.126C24.945 14.126 25.0851 14.1539 25.2158 14.208C25.3466 14.2622 25.4654 14.3415 25.5654 14.4416C25.6655 14.5417 25.7448 14.6604 25.799 14.7912C25.8531 14.9219 25.881 15.062 25.881 15.2035C25.881 15.7995 25.399 16.2815 24.804 16.2815Z" fill="white"/>
<path d="M20.003 23.0055C21.6615 23.0055 23.006 21.661 23.006 20.0025C23.006 18.344 21.6615 16.9995 20.003 16.9995C18.3445 16.9995 17 18.344 17 20.0025C17 21.661 18.3445 23.0055 20.003 23.0055Z" fill="white"/>
<defs>
<filter id="filter0_bi_4377_4508" x="-8" y="-8.00049" width="56" height="56" filterUnits="userSpaceOnUse" color-interpolation-filters="sRGB">
<feFlood flood-opacity="0" result="BackgroundImageFix"/>
<feGaussianBlur in="BackgroundImage" stdDeviation="4"/>
<feComposite in2="SourceAlpha" operator="in" result="effect1_backgroundBlur_4377_4508"/>
<feBlend mode="normal" in="SourceGraphic" in2="effect1_backgroundBlur_4377_4508" result="shape"/>
<feColorMatrix in="SourceAlpha" type="matrix" values="0 0 0 0 0 0 0 0 0 0 0 0 0 0 0 0 0 0 127 0" result="hardAlpha"/>
<feOffset dx="1" dy="1"/>
<feGaussianBlur stdDeviation="2"/>
<feComposite in2="hardAlpha" operator="arithmetic" k2="-1" k3="1"/>
<feColorMatrix type="matrix" values="0 0 0 0 1 0 0 0 0 1 0 0 0 0 1 0 0 0 1 0"/>
<feBlend mode="normal" in2="shape" result="effect2_innerShadow_4377_4508"/>
</filter>
<linearGradient id="paint0_linear_4377_4508" x1="36.6667" y1="32.9995" x2="-3.01136e-06" y2="4.33284" gradientUnits="userSpaceOnUse">
<stop stop-color="white"/>
<stop offset="1" stop-color="white" stop-opacity="0.26"/>
</linearGradient>
<linearGradient id="paint1_linear_4377_4508" x1="49.6667" y1="47.3328" x2="8" y2="14.3328" gradientUnits="userSpaceOnUse">
<stop stop-color="white"/>
<stop offset="1" stop-color="white" stop-opacity="0"/>
</linearGradient>
<linearGradient id="paint2_linear_4377_4508" x1="36.6667" y1="32.9995" x2="11.3333" y2="7.66618" gradientUnits="userSpaceOnUse">
<stop stop-color="#3333FF"/>
<stop offset="1" stop-color="#101647" stop-opacity="0.24"/>
</linearGradient>
</defs>
</svg>
