<svg width="119" height="22" viewBox="0 0 119 22" fill="none" xmlns="http://www.w3.org/2000/svg">
<path d="M8.7821 0.00116677C6.73067 0.000922512 4.74391 0.721568 3.16659 2.03804C1.58928 3.35451 0.52098 5.18371 0.147092 7.2082C-0.226796 9.23268 0.117328 11.3247 1.11974 13.1211C2.12216 14.9175 3.71959 16.3049 5.63481 17.0427L4.60236 18.0731C4.52118 18.157 4.46155 18.2595 4.4286 18.3717C4.39565 18.4839 4.39038 18.6025 4.41324 18.7172C4.43609 18.8319 4.48639 18.9393 4.55981 19.0302C4.63322 19.121 4.72753 19.1926 4.83464 19.2387C4.96538 19.2922 5.10893 19.3058 5.24734 19.2778C5.38574 19.2498 5.51285 19.1815 5.61275 19.0814L7.20729 17.481C7.72805 17.5792 8.25687 17.628 8.78674 17.6267C11.1156 17.6267 13.3491 16.6981 14.9959 15.0453C16.6426 13.3925 17.5678 11.1508 17.5678 8.81333C17.5678 6.47589 16.6426 4.23418 14.9959 2.58136C13.3491 0.928543 11.1156 0 8.78674 0L8.7821 0.00116677ZM1.3494 8.81449C1.3494 6.83597 2.13248 4.93848 3.52638 3.53945C4.92029 2.14043 6.81082 1.35446 8.7821 1.35446C8.96095 1.35446 9.13863 1.35446 9.31748 1.37661L4.05653 6.66274C2.39578 8.32881 2.22971 9.82665 3.5583 11.1562C4.5532 12.154 6.2693 11.7126 8.70661 9.83209C11.1439 7.95154 12.5763 7.22768 13.0036 7.66052C13.6691 8.32843 13.5019 9.15835 12.5124 10.1573L6.70443 15.9726C5.16179 15.5197 3.80677 14.5775 2.84209 13.2872C1.87741 11.9969 1.35495 10.4277 1.35288 8.81449H1.3494ZM8.7821 16.2745C8.66596 16.2745 8.53821 16.2745 8.41975 16.264L13.503 11.1632C15.1645 9.49483 15.3302 7.99583 14.0001 6.66624C13.0075 5.66457 11.2918 6.10596 8.85294 7.99039C6.41409 9.86822 4.98097 10.5944 4.55591 10.1608C3.89084 9.4925 4.05653 8.66024 5.05297 7.66402L11.0015 1.69483C12.6942 2.22933 14.1406 3.35407 15.0791 4.86571C16.0176 6.37734 16.3863 8.17611 16.1185 9.93681C15.8507 11.6975 14.9641 13.3039 13.619 14.4657C12.2738 15.6274 10.559 16.2678 8.78442 16.271L8.7821 16.2745Z" fill="white"/>
<path d="M3.41334 19.5366C3.24003 19.5366 3.07207 19.5969 2.93808 19.7072C2.80408 19.8176 2.71234 19.9712 2.67849 20.1418C2.64464 20.3125 2.67077 20.4897 2.75243 20.6432C2.83409 20.7966 2.96623 20.917 3.12633 20.9836C3.28643 21.0502 3.46458 21.059 3.63043 21.0086C3.79629 20.9581 3.93958 20.8514 4.03589 20.7068C4.1322 20.5621 4.17558 20.3884 4.15863 20.2152C4.14167 20.042 4.06544 19.8801 3.94292 19.757C3.80219 19.6164 3.61188 19.5372 3.41334 19.5366Z" fill="white"/>
<path d="M25.1853 4.03027H32.4949V5.4978H25.1853C23.7235 5.4978 22.9922 5.98698 22.9914 6.96533C22.9914 7.60177 24.5755 8.12746 27.7437 8.54243C30.9119 8.95739 32.4956 9.89922 32.4949 11.3679C32.4949 13.3238 31.2766 14.3022 28.8401 14.303H21.5293V12.8354H28.8401C30.3018 12.8354 31.0327 12.3463 31.0327 11.3679C31.0327 10.7315 29.449 10.2054 26.2816 9.78965C23.1142 9.37391 21.5301 8.43247 21.5293 6.96533C21.5293 5.00863 22.748 4.03027 25.1853 4.03027Z" fill="white"/>
<path d="M41.2697 5.4978H33.959V4.03027H41.2697C43.7063 4.03027 44.9245 5.00863 44.9245 6.96533C44.9245 8.92204 43.7063 9.90039 41.2697 9.90039H35.4211V14.303H33.959V8.4282H41.2697C42.7315 8.4282 43.4624 7.93902 43.4624 6.96067C43.4624 5.98232 42.7315 5.49469 41.2697 5.4978Z" fill="white"/>
<path d="M49.7407 4.03027H53.3967C55.8332 4.03027 57.0515 5.00863 57.0515 6.96533V11.3679C57.0515 13.3238 55.8332 14.3022 53.3967 14.303H49.7407C47.3042 14.303 46.0859 13.3246 46.0859 11.3679V6.96533C46.0859 5.00863 47.3042 4.03027 49.7407 4.03027ZM53.3967 5.4978H49.7407C48.2782 5.4978 47.5473 5.98698 47.5481 6.96533V11.3679C47.5481 12.3455 48.279 12.8347 49.7407 12.8354H53.3967C54.8577 12.8354 55.5886 12.3463 55.5893 11.3679V6.96533C55.5893 5.98776 54.8585 5.49858 53.3967 5.4978Z" fill="white"/>
<path d="M65.8252 5.4978H58.5156V4.03027H65.8252C68.2633 4.03027 69.482 5.00863 69.4812 6.96533C69.4804 8.92204 68.2618 9.90039 65.8252 9.90039H65.3944L69.7808 14.303H67.7194L63.3329 9.90039H59.9778V14.303H58.5156V8.4282H65.8252C67.287 8.4282 68.0183 7.93902 68.019 6.96067C68.0198 5.98232 67.2885 5.49469 65.8252 5.4978Z" fill="white"/>
<path d="M74.6702 5.4978H69.918V4.03027H80.8835V5.4978H76.1324V14.303H74.6702V5.4978Z" fill="white"/>
<path d="M89.6564 5.4978H82.3398V4.03027H89.6564C92.0929 4.03027 93.3112 5.00863 93.3112 6.96533C93.3112 8.92204 92.0929 9.90039 89.6564 9.90039H89.2255L93.6108 14.303H91.5494L87.1641 9.90039H83.8078V14.303H82.3456V8.4282H89.6622C91.124 8.4282 91.8549 7.93902 91.8549 6.96067C91.8549 5.98232 91.122 5.49469 89.6564 5.4978Z" fill="white"/>
<path d="M98.2017 4.03027H105.512V5.4978H98.2017C96.7407 5.4978 96.0098 5.98698 96.009 6.96533V8.4282H105.512V9.89572H96.0137V11.3633C96.0137 12.3408 96.7446 12.83 98.2063 12.8308H105.517V14.303H98.2017C95.7651 14.303 94.5469 13.3246 94.5469 11.3679V6.96533C94.5469 5.00863 95.7651 4.03027 98.2017 4.03027Z" fill="white"/>
<path d="M116.478 6.96533V4.03027H117.94V6.96533C117.94 8.92281 116.722 9.90116 114.285 9.90039H114.226L118.671 14.303H116.609L112.165 9.90039H110.629C109.168 9.90039 108.437 10.3896 108.437 11.3679V14.303H106.975V11.3679C106.975 9.41043 108.193 8.43208 110.629 8.43286H110.689L106.244 4.03027H108.306L112.75 8.4282H114.285C115.748 8.4282 116.479 7.94058 116.478 6.96533Z" fill="white"/>
</svg>
