<svg width="34" height="34" viewBox="0 0 34 34" fill="none" xmlns="http://www.w3.org/2000/svg">
<path d="M31.5007 1L19 10.9999L21.3246 5.10665L31.5007 1Z" fill="#E17726" stroke="#E17726" stroke-width="0.198992" stroke-linecap="round" stroke-linejoin="round"/>
<path d="M3 1L15.3894 11.0933L13.1762 5.10664L3 1Z" fill="#E27625" stroke="#E27625" stroke-width="0.198992" stroke-linecap="round" stroke-linejoin="round"/>
<path d="M27.3261 24L24 29.4933L31.122 31.6133L33.1623 24.1201L27.3261 24Z" fill="#E27625" stroke="#E27625" stroke-width="0.198992" stroke-linecap="round" stroke-linejoin="round"/>
<path d="M1 24.1201L3.0278 31.6133L10.1375 29.4933L6.82376 24L1 24.1201Z" fill="#E27625" stroke="#E27625" stroke-width="0.198992" stroke-linecap="round" stroke-linejoin="round"/>
<path d="M9.97831 14.6266L8 17.8533L15.0479 18.1999L14.813 10L9.97831 14.6266Z" fill="#E27625" stroke="#E27625" stroke-width="0.198992" stroke-linecap="round" stroke-linejoin="round"/>
<path d="M24.0694 14.72L19.1608 10L19 18.2933L26.0478 17.9466L24.0694 14.72Z" fill="#E27625" stroke="#E27625" stroke-width="0.198992" stroke-linecap="round" stroke-linejoin="round"/>
<path d="M10 29.3199L14.2658 27.0933L10.5935 24L10 29.3199Z" fill="#E27625" stroke="#E27625" stroke-width="0.198992" stroke-linecap="round" stroke-linejoin="round"/>
<path d="M19 27.0933L23.2534 29.3199L22.6722 24L19 27.0933Z" fill="#E27625" stroke="#E27625" stroke-width="0.198992" stroke-linecap="round" stroke-linejoin="round"/>
<path d="M23.2534 29.2266L19 27L19.3462 29.9866L19.309 31.2533L23.2534 29.2266Z" fill="#D5BFB2" stroke="#D5BFB2" stroke-width="0.198992" stroke-linecap="round" stroke-linejoin="round"/>
<path d="M10 29.2266L13.9567 31.2533L13.932 29.9866L14.2658 27L10 29.2266Z" fill="#D5BFB2" stroke="#D5BFB2" stroke-width="0.198992" stroke-linecap="round" stroke-linejoin="round"/>
<path d="M14.5363 22.36L11 21.24L13.4977 20L14.5363 22.36Z" fill="#233447" stroke="#233447" stroke-width="0.198992" stroke-linecap="round" stroke-linejoin="round"/>
<path d="M20 22.36L21.0387 20L23.5487 21.24L20 22.36Z" fill="#233447" stroke="#233447" stroke-width="0.198992" stroke-linecap="round" stroke-linejoin="round"/>
<path d="M10.3137 29.4933L10.932 24L7 24.1201L10.3137 29.4933Z" fill="#CC6228" stroke="#CC6228" stroke-width="0.198992" stroke-linecap="round" stroke-linejoin="round"/>
<path d="M23 24L23.6059 29.4933L26.932 24.1201L23 24Z" fill="#CC6228" stroke="#CC6228" stroke-width="0.198992" stroke-linecap="round" stroke-linejoin="round"/>
<path d="M26.0478 18L19 18.3467L19.6553 22.2534L20.694 19.8933L23.204 21.1333L26.0478 18Z" fill="#CC6228" stroke="#CC6228" stroke-width="0.198992" stroke-linecap="round" stroke-linejoin="round"/>
<path d="M10.8562 21.1333L13.3539 19.8933L14.3926 22.2534L15.0479 18.3467L8 18L10.8562 21.1333Z" fill="#CC6228" stroke="#CC6228" stroke-width="0.198992" stroke-linecap="round" stroke-linejoin="round"/>
<path d="M8 18L10.9552 24.2267L10.8562 21.1333L8 18Z" fill="#E27525" stroke="#E27525" stroke-width="0.198992" stroke-linecap="round" stroke-linejoin="round"/>
<path d="M23.1113 21.1333L23 24.2267L25.9552 18L23.1113 21.1333Z" fill="#E27525" stroke="#E27525" stroke-width="0.198992" stroke-linecap="round" stroke-linejoin="round"/>
<path d="M14.6554 18L14 21.9067L14.8284 26.52L15.0139 20.44L14.6554 18Z" fill="#E27525" stroke="#E27525" stroke-width="0.198992" stroke-linecap="round" stroke-linejoin="round"/>
<path d="M19.3463 18L19 20.4267L19.1731 26.52L20.0016 21.9067L19.3463 18Z" fill="#E27525" stroke="#E27525" stroke-width="0.198992" stroke-linecap="round" stroke-linejoin="round"/>
<path d="M19.8284 22.12L19 26.7333L19.5935 27.1866L23.2659 24.0933L23.3771 21L19.8284 22.12Z" fill="#F5841F" stroke="#F5841F" stroke-width="0.198992" stroke-linecap="round" stroke-linejoin="round"/>
<path d="M11 21L11.099 24.0933L14.7712 27.1866L15.3648 26.7333L14.5363 22.12L11 21Z" fill="#F5841F" stroke="#F5841F" stroke-width="0.198992" stroke-linecap="round" stroke-linejoin="round"/>
<path d="M19.2488 32.0267L19.2858 30.76L18.9644 30.4666H14.2411L13.932 30.76L13.9567 32.0267L10 30L11.3848 31.2266L14.1916 33.32H19.0014L21.8206 31.2266L23.1931 30L19.2488 32.0267Z" fill="#C0AC9D" stroke="#C0AC9D" stroke-width="0.198992" stroke-linecap="round" stroke-linejoin="round"/>
<path d="M19.0077 27.4533L18.4141 27H14.9273L14.3339 27.4533L14 30.44L14.3091 30.1466H19.0324L19.3539 30.44L19.0077 27.4533Z" fill="#161616" stroke="#161616" stroke-width="0.198992" stroke-linecap="round" stroke-linejoin="round"/>
<path d="M31.6119 11.6532L32.6629 6.13331L31.0802 1L19 10.6667L23.649 14.9066L30.2147 16.9733L31.6614 15.1466L31.0308 14.6532L32.0323 13.6666L31.2657 13.0266L32.2673 12.1999L31.6119 11.6532Z" fill="#763E1A" stroke="#763E1A" stroke-width="0.198992" stroke-linecap="round" stroke-linejoin="round"/>
<path d="M1 6.13331L2.06336 11.6532L1.38331 12.1999L2.39721 13.0266L1.6306 13.6666L2.63214 14.6532L2.00154 15.1466L3.44821 16.9733L10.0139 14.9066L14.6629 10.6667L2.58268 1L1 6.13331Z" fill="#763E1A" stroke="#763E1A" stroke-width="0.198992" stroke-linecap="round" stroke-linejoin="round"/>
<path d="M30.5424 17.0666L23.9768 15L25.9552 18.2267L23 24.4532L26.9072 24.3999H32.7433L30.5424 17.0666Z" fill="#F5841F" stroke="#F5841F" stroke-width="0.198992" stroke-linecap="round" stroke-linejoin="round"/>
<path d="M9.75415 15L3.18854 17.0666L1 24.3999H6.82376L10.731 24.4532L7.77584 18.2267L9.75415 15Z" fill="#F5841F" stroke="#F5841F" stroke-width="0.198992" stroke-linecap="round" stroke-linejoin="round"/>
<path d="M19.1576 18.3733L19.578 10.5599L21.4821 5H13L14.9041 10.5599L15.3245 18.3733L15.4853 20.8266L15.4977 26.8932H18.9845L18.9969 20.8266L19.1576 18.3733Z" fill="#F5841F" stroke="#F5841F" stroke-width="0.198992" stroke-linecap="round" stroke-linejoin="round"/>
</svg>
