<svg width="40" height="40" viewBox="0 0 40 40" fill="none" xmlns="http://www.w3.org/2000/svg">
<g filter="url(#filter0_bi_4377_4503)">
<rect y="-0.000488281" width="40" height="40" rx="20" fill="url(#paint0_linear_4377_4503)" fill-opacity="0.12"/>
<rect x="0.3" y="0.299512" width="39.4" height="39.4" rx="19.7" stroke="url(#paint1_linear_4377_4503)" stroke-opacity="0.3" stroke-width="0.6"/>
</g>
<mask id="mask0_4377_4503" style="mask-type:alpha" maskUnits="userSpaceOnUse" x="0" y="-1" width="40" height="41">
<rect y="-0.000488281" width="40" height="40" rx="20" fill="#181D4B"/>
<rect y="-0.000488281" width="40" height="40" rx="20" fill="url(#paint2_linear_4377_4503)" fill-opacity="0.52"/>
</mask>
<g mask="url(#mask0_4377_4503)">
</g>
<path d="M28.2106 11.154C28.2106 11.154 30.1531 10.3965 29.9906 12.236C29.9371 12.9935 29.4516 15.645 29.0736 18.5125L27.7786 27.0075C27.7786 27.0075 27.6706 28.252 26.6991 28.4685C25.7281 28.6845 24.2711 27.711 24.0011 27.4945C23.7851 27.332 19.9541 24.897 18.6051 23.707C18.2271 23.382 17.7951 22.733 18.6591 21.9755L24.3246 16.5645C24.9721 15.9155 25.6196 14.4005 22.9216 16.24L15.3666 21.38C15.3666 21.38 14.5031 21.9215 12.8846 21.4345L9.37665 20.352C9.37665 20.352 8.08165 19.5405 10.2941 18.729C15.6906 16.186 22.3281 13.589 28.2096 11.154H28.2106Z" fill="white"/>
<defs>
<filter id="filter0_bi_4377_4503" x="-8" y="-8.00049" width="56" height="56" filterUnits="userSpaceOnUse" color-interpolation-filters="sRGB">
<feFlood flood-opacity="0" result="BackgroundImageFix"/>
<feGaussianBlur in="BackgroundImage" stdDeviation="4"/>
<feComposite in2="SourceAlpha" operator="in" result="effect1_backgroundBlur_4377_4503"/>
<feBlend mode="normal" in="SourceGraphic" in2="effect1_backgroundBlur_4377_4503" result="shape"/>
<feColorMatrix in="SourceAlpha" type="matrix" values="0 0 0 0 0 0 0 0 0 0 0 0 0 0 0 0 0 0 127 0" result="hardAlpha"/>
<feOffset dx="1" dy="1"/>
<feGaussianBlur stdDeviation="2"/>
<feComposite in2="hardAlpha" operator="arithmetic" k2="-1" k3="1"/>
<feColorMatrix type="matrix" values="0 0 0 0 1 0 0 0 0 1 0 0 0 0 1 0 0 0 1 0"/>
<feBlend mode="normal" in2="shape" result="effect2_innerShadow_4377_4503"/>
</filter>
<linearGradient id="paint0_linear_4377_4503" x1="36.6667" y1="32.9995" x2="-3.01136e-06" y2="4.33284" gradientUnits="userSpaceOnUse">
<stop stop-color="white"/>
<stop offset="1" stop-color="white" stop-opacity="0.26"/>
</linearGradient>
<linearGradient id="paint1_linear_4377_4503" x1="49.6667" y1="47.3328" x2="8" y2="14.3328" gradientUnits="userSpaceOnUse">
<stop stop-color="white"/>
<stop offset="1" stop-color="white" stop-opacity="0"/>
</linearGradient>
<linearGradient id="paint2_linear_4377_4503" x1="36.6667" y1="32.9995" x2="11.3333" y2="7.66618" gradientUnits="userSpaceOnUse">
<stop stop-color="#3333FF"/>
<stop offset="1" stop-color="#101647" stop-opacity="0.24"/>
</linearGradient>
</defs>
</svg>
