<svg width="1243" height="406" viewBox="0 0 1243 406" fill="none" xmlns="http://www.w3.org/2000/svg">
<circle cx="1220" cy="107" r="22.5" stroke="#010E28"/>
<circle cx="104" cy="30" r="22.5" stroke="#3333FF"/>
<mask id="path-3-inside-1_8_291" fill="white">
<path d="M918.252 12.5057L956.146 28.1614L923.641 53.15L918.252 12.5057Z"/>
</mask>
<path d="M918.252 12.5057L918.645 11.5545L916.998 10.8738L917.232 12.6409L918.252 12.5057ZM956.146 28.1614L956.773 28.9773L958.186 27.8909L956.539 27.2102L956.146 28.1614ZM923.641 53.15L922.621 53.2853L922.855 55.0524L924.268 53.966L923.641 53.15ZM917.859 13.4569L955.753 29.1126L956.539 27.2102L918.645 11.5545L917.859 13.4569ZM955.518 27.3454L923.014 52.3341L924.268 53.966L956.773 28.9773L955.518 27.3454ZM924.661 53.0148L919.273 12.3704L917.232 12.6409L922.621 53.2853L924.661 53.0148Z" fill="#3333FF" mask="url(#path-3-inside-1_8_291)"/>
<rect x="0.517181" y="376.071" width="33.2186" height="33.2186" transform="rotate(-37.2248 0.517181 376.071)" stroke="black" stroke-width="0.73819"/>
<rect x="634.701" y="35.0957" width="45" height="45" transform="rotate(-37.2248 634.701 35.0957)" stroke="black"/>
<rect x="1042.7" y="369.096" width="45" height="45" transform="rotate(-37.2248 1042.7 369.096)" stroke="black"/>
</svg>
