<svg width="151" height="30" viewBox="0 0 151 30" fill="none" xmlns="http://www.w3.org/2000/svg">
<path d="M70.6858 26.1897C70.6858 26.3357 70.6718 26.4508 70.6437 26.535C70.6156 26.6136 70.5791 26.6754 70.5342 26.7203C70.4893 26.7653 70.4219 26.8074 70.332 26.8467C70.2422 26.8804 70.099 26.8972 69.9025 26.8972C69.7508 26.8972 69.6273 26.8832 69.5318 26.8551C69.4364 26.827 69.355 26.7905 69.2876 26.7456C69.1697 26.6558 69.0489 26.4705 68.9254 26.1897L67.1481 22.0455C67.0639 21.8546 66.9909 21.7339 66.9291 21.6834C66.8674 21.6272 66.7803 21.5991 66.668 21.5991C66.5557 21.5991 66.4827 21.6216 66.449 21.6665C66.4209 21.7114 66.4069 21.776 66.4069 21.8602V26.5856C66.4069 26.6866 66.3844 26.7568 66.3395 26.7961C66.2946 26.8298 66.2216 26.8467 66.1205 26.8467H65.9857C65.9408 26.8467 65.9127 26.8383 65.9015 26.8214C65.8903 26.7989 65.8847 26.7709 65.8847 26.7372V21.835C65.8847 21.5542 65.9352 21.3661 66.0363 21.2706C66.0812 21.2313 66.1486 21.1976 66.2384 21.1695C66.3339 21.1359 66.4659 21.119 66.6343 21.119C66.8084 21.119 66.9432 21.1302 67.0386 21.1527C67.1341 21.1752 67.2099 21.2089 67.266 21.2538C67.3334 21.2987 67.3952 21.3661 67.4514 21.4559C67.5075 21.5458 67.5749 21.6777 67.6535 21.8518L69.4308 25.996C69.4982 26.1588 69.5627 26.2683 69.6245 26.3245C69.6863 26.375 69.7733 26.4003 69.8856 26.4003C69.9979 26.4003 70.0709 26.3722 70.1046 26.316C70.1383 26.2599 70.1551 26.1841 70.1551 26.0886V21.4054C70.1551 21.3155 70.172 21.251 70.2057 21.2117C70.245 21.1724 70.3236 21.1527 70.4415 21.1527H70.5763C70.6212 21.1527 70.6493 21.1639 70.6605 21.1864C70.6774 21.2032 70.6858 21.2285 70.6858 21.2622V26.1897ZM72.4571 21.3212C72.4571 21.2594 72.4712 21.2201 72.4993 21.2032C72.5329 21.1808 72.5723 21.1695 72.6172 21.1695C72.8699 21.1583 73.1169 21.1499 73.3584 21.1443C73.6055 21.1387 73.8919 21.1359 74.2176 21.1359C74.4253 21.1359 74.6219 21.1359 74.8072 21.1359C74.9981 21.1359 75.1666 21.1387 75.3126 21.1443C75.4642 21.1443 75.5905 21.1499 75.6916 21.1611C75.7927 21.1667 75.8601 21.1752 75.8937 21.1864C75.9555 21.2089 76.0117 21.2622 76.0622 21.3464C76.1184 21.4307 76.1464 21.5093 76.1464 21.5823C76.1464 21.6104 76.1324 21.6328 76.1043 21.6497C76.0762 21.6665 76.0482 21.6749 76.0201 21.6749C75.8404 21.6693 75.5989 21.6637 75.2957 21.6581C74.9981 21.6525 74.6921 21.6497 74.3776 21.6497C74.1417 21.6497 73.9312 21.6497 73.7459 21.6497C73.5606 21.6497 73.3949 21.6525 73.2489 21.6581C73.1534 21.6637 73.0917 21.6834 73.0636 21.717C73.0411 21.7507 73.0299 21.8153 73.0299 21.9108V23.688C73.0299 23.7723 73.0411 23.8256 73.0636 23.8481C73.0917 23.8649 73.1394 23.8733 73.2068 23.8733H75.8095C75.8825 23.8733 75.919 23.907 75.919 23.9744C75.919 24.0137 75.8937 24.0755 75.8432 24.1597C75.7927 24.244 75.7365 24.3029 75.6747 24.3366C75.6467 24.3535 75.6074 24.3647 75.5568 24.3703C75.5063 24.3703 75.4389 24.3703 75.3547 24.3703H73.2152C73.1366 24.3703 73.0861 24.3872 73.0636 24.4208C73.0411 24.4545 73.0299 24.5135 73.0299 24.5977V26.6277C73.0299 26.7175 73.0131 26.7765 72.9794 26.8046C72.9457 26.8326 72.8867 26.8467 72.8025 26.8467H72.5245C72.4796 26.8467 72.4571 26.813 72.4571 26.7456V21.3212ZM79.0793 26.7203C79.0793 26.8046 79.0428 26.8467 78.9698 26.8467H78.5992C78.543 26.8467 78.515 26.813 78.515 26.7456V22.0624C78.515 21.9725 78.5093 21.8995 78.4981 21.8434C78.4869 21.7816 78.4644 21.7367 78.4307 21.7086C78.4026 21.6805 78.3577 21.6609 78.296 21.6497C78.2398 21.6384 78.164 21.6328 78.0685 21.6328H76.5018C76.4738 21.6328 76.4513 21.6244 76.4345 21.6075C76.4176 21.5851 76.4092 21.5626 76.4092 21.5402C76.4092 21.4728 76.426 21.4082 76.4597 21.3464C76.4934 21.279 76.5271 21.2341 76.5608 21.2117C76.5889 21.1892 76.6282 21.1752 76.6787 21.1695C76.7349 21.1639 76.8023 21.1611 76.8809 21.1611H81.1008C81.1289 21.1611 81.1542 21.1695 81.1766 21.1864C81.1991 21.1976 81.2103 21.2173 81.2103 21.2454C81.2103 21.3127 81.1935 21.3801 81.1598 21.4475C81.1317 21.5149 81.1036 21.5598 81.0756 21.5823C81.0475 21.6104 81.011 21.6272 80.9661 21.6328C80.9268 21.6328 80.865 21.6328 80.7808 21.6328H79.492C79.4022 21.6328 79.3292 21.6384 79.273 21.6497C79.2225 21.6609 79.1804 21.6834 79.1467 21.717C79.1186 21.7451 79.099 21.79 79.0877 21.8518C79.0821 21.908 79.0793 21.9838 79.0793 22.0792V26.7203ZM90.7947 26.8467C90.6768 26.8467 90.5897 26.8242 90.5336 26.7793C90.4774 26.7288 90.4437 26.6361 90.4325 26.5013L89.8934 21.9276C89.8822 21.8041 89.8485 21.7199 89.7924 21.6749C89.7362 21.6244 89.6436 21.5991 89.5144 21.5991C89.3852 21.5991 89.2954 21.6244 89.2449 21.6749C89.1999 21.7255 89.1606 21.8153 89.1269 21.9445L88.2088 25.7348C88.1695 25.8808 88.1246 25.9988 88.0741 26.0886C88.0291 26.1785 87.9814 26.2458 87.9309 26.2908C87.8691 26.3357 87.7849 26.375 87.6782 26.4087C87.5715 26.4368 87.4367 26.4508 87.2739 26.4508C87.1279 26.4508 86.9987 26.4396 86.8864 26.4171C86.7741 26.389 86.6871 26.3469 86.6253 26.2908C86.5242 26.1953 86.4428 26.0128 86.381 25.7433L85.5387 21.9529C85.505 21.8125 85.4601 21.7199 85.404 21.6749C85.3478 21.6244 85.2608 21.5991 85.1428 21.5991C85.0081 21.5991 84.9154 21.6272 84.8649 21.6834C84.8143 21.7339 84.7778 21.849 84.7554 22.0287L84.1658 26.535C84.1545 26.6586 84.1208 26.7428 84.0647 26.7877C84.0085 26.827 83.9159 26.8467 83.7867 26.8467H83.6688C83.607 26.8467 83.5818 26.8074 83.593 26.7288L84.2247 21.9866C84.2528 21.7676 84.2893 21.6104 84.3342 21.5149C84.3792 21.4194 84.4325 21.3436 84.4943 21.2875C84.556 21.2369 84.6403 21.1976 84.747 21.1695C84.8593 21.1359 85.0053 21.119 85.185 21.119C85.477 21.119 85.6819 21.1695 85.7998 21.2706C85.8616 21.3155 85.9121 21.3801 85.9515 21.4644C85.9908 21.5486 86.0301 21.6749 86.0694 21.8434L86.9117 25.6169C86.9454 25.7573 86.9875 25.85 87.038 25.8949C87.0942 25.9398 87.1812 25.9623 87.2991 25.9623C87.4283 25.9623 87.5153 25.9426 87.5603 25.9033C87.6052 25.8584 87.6445 25.7657 87.6782 25.6253L88.5963 21.8602C88.6356 21.703 88.6777 21.5823 88.7226 21.498C88.7676 21.4082 88.8237 21.3352 88.8911 21.279C88.9529 21.2285 89.0371 21.1892 89.1438 21.1611C89.2561 21.133 89.3993 21.119 89.5734 21.119C89.7531 21.119 89.8906 21.133 89.9861 21.1611C90.0816 21.1892 90.1574 21.2229 90.2135 21.2622C90.2697 21.3071 90.3174 21.3745 90.3567 21.4644C90.4016 21.5486 90.4325 21.6749 90.4494 21.8434L91.0221 26.7288C91.0277 26.8074 90.9969 26.8467 90.9295 26.8467H90.7947ZM92.3718 26.5013C92.3325 26.6305 92.2763 26.7203 92.2033 26.7709C92.1303 26.8214 92.0349 26.8467 91.9169 26.8467H91.8243C91.785 26.8467 91.7569 26.8354 91.7401 26.813C91.7232 26.7905 91.7148 26.7681 91.7148 26.7456C91.7148 26.7063 91.7176 26.6726 91.7232 26.6445C91.7344 26.6164 91.7485 26.5715 91.7653 26.5098L92.9951 22.5257C93.0569 22.3179 93.113 22.1438 93.1636 22.0034C93.2197 21.863 93.2702 21.7479 93.3152 21.6581C93.3601 21.5682 93.4022 21.498 93.4415 21.4475C93.4864 21.3914 93.5314 21.3464 93.5763 21.3127C93.7504 21.1724 94.0339 21.1022 94.427 21.1022C94.6404 21.1022 94.8089 21.119 94.9324 21.1527C95.0615 21.1864 95.1654 21.2341 95.244 21.2959C95.2834 21.3296 95.3227 21.3745 95.362 21.4307C95.4013 21.4868 95.4406 21.5626 95.4799 21.6581C95.5248 21.7479 95.5697 21.863 95.6147 22.0034C95.6652 22.1382 95.7214 22.3067 95.7831 22.5088L96.9539 26.535C96.9764 26.6024 96.9904 26.6473 96.996 26.6698C97.0017 26.6923 97.0045 26.7175 97.0045 26.7456C97.0045 26.7624 96.9932 26.7849 96.9708 26.813C96.9483 26.8354 96.9146 26.8467 96.8697 26.8467H96.7433C96.631 26.8467 96.5412 26.8186 96.4738 26.7624C96.4064 26.7063 96.3531 26.6136 96.3138 26.4845L95.8589 24.9346C95.8309 24.8336 95.7887 24.7662 95.7326 24.7325C95.682 24.6932 95.5754 24.6735 95.4125 24.6735H93.2815C93.1299 24.6735 93.0232 24.696 92.9614 24.7409C92.8996 24.7802 92.8463 24.8729 92.8014 25.0189L92.3718 26.5013ZM95.5978 24.0334C95.5978 23.9997 95.5866 23.9407 95.5641 23.8565C95.5417 23.7723 95.5108 23.66 95.4715 23.5196L95.2272 22.6099C95.143 22.3123 95.07 22.1017 95.0082 21.9782C94.9464 21.849 94.8875 21.762 94.8313 21.717C94.7471 21.6384 94.6011 21.5991 94.3933 21.5991C94.1856 21.5991 94.0339 21.6384 93.9385 21.717C93.8711 21.7676 93.8065 21.8574 93.7447 21.9866C93.683 22.1157 93.6072 22.3347 93.5173 22.6436L93.2394 23.5701C93.2113 23.6768 93.186 23.7695 93.1636 23.8481C93.1467 23.9267 93.1383 23.98 93.1383 24.0081C93.1383 24.0867 93.1579 24.1373 93.1972 24.1597C93.2366 24.1822 93.318 24.1934 93.4415 24.1934H95.3114C95.4294 24.1934 95.5052 24.1794 95.5389 24.1513C95.5782 24.1232 95.5978 24.0839 95.5978 24.0334ZM98.1376 21.2875C98.1376 21.2201 98.1713 21.1836 98.2386 21.178C98.4913 21.1667 98.7805 21.1555 99.1062 21.1443C99.4319 21.133 99.7379 21.1274 100.024 21.1274C100.283 21.1274 100.502 21.133 100.681 21.1443C100.861 21.1555 101.013 21.1724 101.136 21.1948C101.265 21.2117 101.369 21.2369 101.448 21.2706C101.532 21.3043 101.605 21.3436 101.667 21.3885C101.802 21.484 101.908 21.6272 101.987 21.8181C102.066 22.0034 102.105 22.2533 102.105 22.5678C102.105 22.9215 102.06 23.2163 101.97 23.4522C101.88 23.6824 101.768 23.879 101.633 24.0418C101.571 24.1092 101.524 24.1682 101.49 24.2187C101.462 24.2636 101.448 24.3085 101.448 24.3535C101.448 24.4152 101.459 24.4882 101.482 24.5725C101.51 24.6511 101.552 24.7634 101.608 24.9094L102.282 26.6614C102.31 26.7231 102.31 26.7709 102.282 26.8046C102.259 26.8326 102.223 26.8467 102.172 26.8467H102.105C101.959 26.8467 101.849 26.8186 101.776 26.7624C101.703 26.7007 101.639 26.5968 101.583 26.4508L101.018 24.9599C100.945 24.769 100.864 24.637 100.774 24.564C100.69 24.4854 100.552 24.4461 100.361 24.4461H98.9125C98.8282 24.4461 98.7721 24.4601 98.744 24.4882C98.7159 24.5163 98.7019 24.5781 98.7019 24.6735V26.7119C98.7019 26.8018 98.657 26.8467 98.5671 26.8467H98.2218C98.1656 26.8467 98.1376 26.813 98.1376 26.7456V21.2875ZM101.532 22.6773C101.532 22.447 101.507 22.2645 101.456 22.1298C101.406 21.995 101.333 21.8911 101.237 21.8181C101.153 21.7507 101.015 21.703 100.825 21.6749C100.639 21.6469 100.364 21.6328 99.9991 21.6328C99.7688 21.6328 99.5498 21.6356 99.3421 21.6412C99.1399 21.6469 98.9742 21.6553 98.8451 21.6665C98.7946 21.6721 98.7552 21.6862 98.7272 21.7086C98.7047 21.7311 98.6935 21.7732 98.6935 21.835V23.7302C98.6935 23.8312 98.7047 23.8958 98.7272 23.9239C98.7552 23.9463 98.8142 23.9576 98.9041 23.9576H100.378C100.558 23.9576 100.69 23.9548 100.774 23.9492C100.864 23.9379 100.94 23.9211 101.001 23.8986C101.052 23.8762 101.105 23.834 101.161 23.7723C101.223 23.7105 101.282 23.6291 101.338 23.528C101.394 23.4269 101.439 23.3062 101.473 23.1658C101.512 23.0198 101.532 22.857 101.532 22.6773ZM104.164 23.2332C104.164 23.3511 104.166 23.4438 104.172 23.5112C104.178 23.5729 104.194 23.6207 104.222 23.6543C104.251 23.6824 104.293 23.6993 104.349 23.7049C104.411 23.7105 104.495 23.7133 104.602 23.7133H105.478C105.607 23.7133 105.713 23.7077 105.798 23.6965C105.887 23.6852 105.963 23.6656 106.025 23.6375C106.087 23.6038 106.14 23.5589 106.185 23.5027C106.23 23.441 106.278 23.3623 106.328 23.2669L107.246 21.5065C107.314 21.3773 107.387 21.2875 107.465 21.2369C107.544 21.1864 107.656 21.1611 107.802 21.1611H107.887C107.943 21.1611 107.976 21.1808 107.988 21.2201C108.004 21.2538 108.002 21.2931 107.979 21.338L106.817 23.4859C106.755 23.6038 106.707 23.7021 106.674 23.7807C106.646 23.8593 106.631 23.9295 106.631 23.9913C106.631 24.1036 106.707 24.3057 106.859 24.5977L107.903 26.7119C107.92 26.74 107.92 26.7709 107.903 26.8046C107.892 26.8326 107.864 26.8467 107.819 26.8467H107.726C107.58 26.8467 107.463 26.8242 107.373 26.7793C107.288 26.7344 107.215 26.6417 107.154 26.5013L106.311 24.7578C106.25 24.6342 106.193 24.536 106.143 24.463C106.098 24.3843 106.045 24.3254 105.983 24.2861C105.927 24.2468 105.857 24.2215 105.772 24.2103C105.694 24.199 105.59 24.1934 105.461 24.1934H104.559C104.464 24.1934 104.391 24.199 104.34 24.2103C104.29 24.2159 104.251 24.2327 104.222 24.2608C104.194 24.2889 104.178 24.3338 104.172 24.3956C104.166 24.4573 104.164 24.5388 104.164 24.6398V26.6782C104.164 26.7905 104.11 26.8467 104.003 26.8467H103.675C103.624 26.8467 103.599 26.8102 103.599 26.7372V21.2622C103.599 21.1948 103.624 21.1611 103.675 21.1611H103.995C104.051 21.1611 104.093 21.1808 104.121 21.2201C104.149 21.2538 104.164 21.2931 104.164 21.338V23.2332ZM111.089 21.6412C110.887 21.6412 110.679 21.644 110.465 21.6497C110.252 21.6497 110.075 21.6525 109.935 21.6581C109.839 21.6637 109.78 21.6862 109.758 21.7255C109.735 21.7592 109.724 21.8209 109.724 21.9108V23.5448C109.724 23.6347 109.735 23.688 109.758 23.7049C109.786 23.7217 109.831 23.7302 109.893 23.7302H112.613C112.641 23.7302 112.664 23.7442 112.681 23.7723C112.698 23.7947 112.706 23.82 112.706 23.8481C112.706 23.893 112.681 23.9548 112.63 24.0334C112.585 24.112 112.532 24.1653 112.47 24.1934C112.442 24.2159 112.403 24.2299 112.352 24.2355C112.307 24.2355 112.246 24.2355 112.167 24.2355H109.901C109.823 24.2355 109.772 24.2524 109.75 24.2861C109.733 24.3142 109.724 24.3703 109.724 24.4545V26.1055C109.724 26.2009 109.741 26.2655 109.775 26.2992C109.808 26.3329 109.867 26.3497 109.952 26.3497C110.07 26.3553 110.21 26.3581 110.373 26.3581C110.541 26.3581 110.769 26.3581 111.055 26.3581C111.476 26.3581 111.841 26.3525 112.15 26.3413C112.465 26.3301 112.728 26.3188 112.942 26.3076C113.004 26.3076 113.035 26.3357 113.035 26.3918C113.035 26.4536 113.001 26.5322 112.933 26.6277C112.866 26.7175 112.801 26.7765 112.74 26.8046C112.678 26.8326 112.501 26.8495 112.209 26.8551C111.917 26.8607 111.552 26.8635 111.114 26.8635C110.743 26.8635 110.409 26.8635 110.112 26.8635C109.82 26.8635 109.564 26.8579 109.345 26.8467C109.312 26.8467 109.269 26.8326 109.219 26.8046C109.174 26.7765 109.151 26.7119 109.151 26.6108V21.338C109.151 21.265 109.171 21.2201 109.21 21.2032C109.25 21.1864 109.283 21.178 109.312 21.178C109.564 21.1667 109.82 21.1583 110.078 21.1527C110.342 21.1415 110.656 21.1359 111.021 21.1359C111.443 21.1359 111.805 21.1415 112.108 21.1527C112.417 21.1583 112.611 21.1695 112.689 21.1864C112.717 21.1976 112.745 21.2173 112.773 21.2454C112.807 21.2734 112.838 21.3071 112.866 21.3464C112.894 21.3801 112.917 21.4166 112.933 21.4559C112.95 21.4952 112.959 21.5317 112.959 21.5654C112.959 21.6384 112.919 21.6749 112.841 21.6749C112.639 21.6637 112.38 21.6553 112.066 21.6497C111.751 21.644 111.426 21.6412 111.089 21.6412ZM116.152 26.7203C116.152 26.8046 116.116 26.8467 116.043 26.8467H115.672C115.616 26.8467 115.588 26.813 115.588 26.7456V22.0624C115.588 21.9725 115.582 21.8995 115.571 21.8434C115.56 21.7816 115.537 21.7367 115.504 21.7086C115.476 21.6805 115.431 21.6609 115.369 21.6497C115.313 21.6384 115.237 21.6328 115.141 21.6328H113.575C113.547 21.6328 113.524 21.6244 113.507 21.6075C113.491 21.5851 113.482 21.5626 113.482 21.5402C113.482 21.4728 113.499 21.4082 113.533 21.3464C113.566 21.279 113.6 21.2341 113.634 21.2117C113.662 21.1892 113.701 21.1752 113.752 21.1695C113.808 21.1639 113.875 21.1611 113.954 21.1611H118.174C118.202 21.1611 118.227 21.1695 118.25 21.1864C118.272 21.1976 118.283 21.2173 118.283 21.2454C118.283 21.3127 118.266 21.3801 118.233 21.4475C118.205 21.5149 118.177 21.5598 118.148 21.5823C118.12 21.6104 118.084 21.6272 118.039 21.6328C118 21.6328 117.938 21.6328 117.854 21.6328H116.565C116.475 21.6328 116.402 21.6384 116.346 21.6497C116.295 21.6609 116.253 21.6834 116.22 21.717C116.192 21.7451 116.172 21.79 116.161 21.8518C116.155 21.908 116.152 21.9838 116.152 22.0792V26.7203ZM123.138 22.7447C123.138 23.1153 123.079 23.4382 122.961 23.7133C122.848 23.9828 122.711 24.1682 122.548 24.2692C122.424 24.3478 122.259 24.4068 122.051 24.4461C121.849 24.4798 121.588 24.4966 121.268 24.4966H119.954C119.869 24.4966 119.813 24.5107 119.785 24.5388C119.757 24.5668 119.743 24.6286 119.743 24.7241V26.7119C119.743 26.8018 119.698 26.8467 119.608 26.8467H119.263C119.207 26.8467 119.179 26.813 119.179 26.7456V21.2875C119.179 21.2145 119.212 21.178 119.28 21.178C119.561 21.1667 119.85 21.1583 120.147 21.1527C120.451 21.1415 120.759 21.1359 121.074 21.1359C121.332 21.1359 121.548 21.1415 121.722 21.1527C121.897 21.1583 122.043 21.1724 122.16 21.1948C122.284 21.2117 122.382 21.2369 122.455 21.2706C122.534 21.2987 122.604 21.3352 122.666 21.3801C122.795 21.47 122.905 21.6216 122.994 21.835C123.09 22.0427 123.138 22.346 123.138 22.7447ZM122.556 22.7868C122.556 22.5004 122.525 22.2814 122.464 22.1298C122.408 21.9782 122.332 21.863 122.236 21.7844C122.197 21.7564 122.149 21.7339 122.093 21.717C122.037 21.6946 121.961 21.6777 121.866 21.6665C121.776 21.6497 121.664 21.6384 121.529 21.6328C121.4 21.6272 121.24 21.6244 121.049 21.6244C120.813 21.6244 120.591 21.6272 120.383 21.6328C120.181 21.6328 120.015 21.6356 119.886 21.6412C119.836 21.6469 119.796 21.6609 119.768 21.6834C119.746 21.7002 119.735 21.7423 119.735 21.8097V23.7891C119.735 23.8846 119.746 23.9463 119.768 23.9744C119.796 23.9969 119.855 24.0081 119.945 24.0081H121.2C121.447 24.0081 121.635 24.0025 121.765 23.9913C121.894 23.98 122 23.952 122.085 23.907C122.214 23.8453 122.323 23.7217 122.413 23.5364C122.509 23.3511 122.556 23.1012 122.556 22.7868ZM124.352 21.2622C124.352 21.1948 124.389 21.1611 124.462 21.1611H124.731C124.81 21.1611 124.863 21.178 124.891 21.2117C124.919 21.2397 124.933 21.2987 124.933 21.3885V26.1055C124.933 26.2009 124.95 26.2655 124.984 26.2992C125.017 26.3329 125.079 26.3497 125.169 26.3497C125.287 26.3553 125.444 26.3581 125.641 26.3581C125.837 26.3581 126.076 26.3581 126.357 26.3581C126.789 26.3581 127.157 26.3525 127.46 26.3413C127.763 26.3245 128.013 26.3104 128.21 26.2992C128.266 26.2992 128.294 26.3273 128.294 26.3834C128.294 26.4452 128.26 26.521 128.193 26.6108C128.131 26.7007 128.069 26.7596 128.008 26.7877C127.946 26.8158 127.766 26.8354 127.469 26.8467C127.171 26.8579 126.798 26.8635 126.348 26.8635C125.983 26.8635 125.655 26.8607 125.363 26.8551C125.076 26.8551 124.81 26.8495 124.563 26.8383C124.529 26.8383 124.484 26.8242 124.428 26.7961C124.377 26.7681 124.352 26.7063 124.352 26.6108V21.2622ZM129.321 26.5013C129.282 26.6305 129.226 26.7203 129.153 26.7709C129.08 26.8214 128.984 26.8467 128.866 26.8467H128.774C128.735 26.8467 128.706 26.8354 128.69 26.813C128.673 26.7905 128.664 26.7681 128.664 26.7456C128.664 26.7063 128.667 26.6726 128.673 26.6445C128.684 26.6164 128.698 26.5715 128.715 26.5098L129.945 22.5257C130.006 22.3179 130.063 22.1438 130.113 22.0034C130.169 21.863 130.22 21.7479 130.265 21.6581C130.31 21.5682 130.352 21.498 130.391 21.4475C130.436 21.3914 130.481 21.3464 130.526 21.3127C130.7 21.1724 130.983 21.1022 131.377 21.1022C131.59 21.1022 131.758 21.119 131.882 21.1527C132.011 21.1864 132.115 21.2341 132.194 21.2959C132.233 21.3296 132.272 21.3745 132.312 21.4307C132.351 21.4868 132.39 21.5626 132.429 21.6581C132.474 21.7479 132.519 21.863 132.564 22.0034C132.615 22.1382 132.671 22.3067 132.733 22.5088L133.903 26.535C133.926 26.6024 133.94 26.6473 133.946 26.6698C133.951 26.6923 133.954 26.7175 133.954 26.7456C133.954 26.7624 133.943 26.7849 133.92 26.813C133.898 26.8354 133.864 26.8467 133.819 26.8467H133.693C133.581 26.8467 133.491 26.8186 133.423 26.7624C133.356 26.7063 133.303 26.6136 133.263 26.4845L132.808 24.9346C132.78 24.8336 132.738 24.7662 132.682 24.7325C132.632 24.6932 132.525 24.6735 132.362 24.6735H130.231C130.079 24.6735 129.973 24.696 129.911 24.7409C129.849 24.7802 129.796 24.8729 129.751 25.0189L129.321 26.5013ZM132.547 24.0334C132.547 23.9997 132.536 23.9407 132.514 23.8565C132.491 23.7723 132.46 23.66 132.421 23.5196L132.177 22.6099C132.093 22.3123 132.02 22.1017 131.958 21.9782C131.896 21.849 131.837 21.762 131.781 21.717C131.697 21.6384 131.551 21.5991 131.343 21.5991C131.135 21.5991 130.983 21.6384 130.888 21.717C130.821 21.7676 130.756 21.8574 130.694 21.9866C130.633 22.1157 130.557 22.3347 130.467 22.6436L130.189 23.5701C130.161 23.6768 130.136 23.7695 130.113 23.8481C130.096 23.9267 130.088 23.98 130.088 24.0081C130.088 24.0867 130.107 24.1373 130.147 24.1597C130.186 24.1822 130.268 24.1934 130.391 24.1934H132.261C132.379 24.1934 132.455 24.1794 132.488 24.1513C132.528 24.1232 132.547 24.0839 132.547 24.0334ZM135.291 24.025C135.291 24.564 135.336 24.9992 135.426 25.3305C135.516 25.6618 135.642 25.8977 135.805 26.0381C135.934 26.1504 136.128 26.2374 136.386 26.2992C136.645 26.3553 136.976 26.3834 137.38 26.3834C137.7 26.3834 138.001 26.3666 138.282 26.3329C138.562 26.2992 138.784 26.2655 138.947 26.2318C138.975 26.2318 138.998 26.2402 139.014 26.2571C139.031 26.2683 139.037 26.288 139.031 26.316C139.026 26.3834 138.995 26.462 138.939 26.5519C138.888 26.6361 138.832 26.6979 138.77 26.7372C138.697 26.7821 138.529 26.8214 138.265 26.8551C138.001 26.8888 137.655 26.9056 137.229 26.9056C136.723 26.9056 136.325 26.8635 136.033 26.7793C135.741 26.6894 135.519 26.5715 135.367 26.4255C135.277 26.3469 135.193 26.2458 135.115 26.1223C135.036 25.9931 134.966 25.8359 134.904 25.6506C134.842 25.4597 134.792 25.2379 134.752 24.9852C134.719 24.7269 134.702 24.4265 134.702 24.0839C134.702 23.7358 134.721 23.4297 134.761 23.1658C134.806 22.8963 134.862 22.6632 134.929 22.4667C135.002 22.2645 135.084 22.0933 135.173 21.9529C135.269 21.8125 135.367 21.6946 135.468 21.5991C135.637 21.4531 135.87 21.3352 136.167 21.2454C136.471 21.1499 136.881 21.1022 137.397 21.1022C137.751 21.1022 138.043 21.1134 138.273 21.1359C138.509 21.1527 138.677 21.1836 138.779 21.2285C138.846 21.2678 138.905 21.3296 138.955 21.4138C139.006 21.4924 139.031 21.5626 139.031 21.6244C139.031 21.6525 139.023 21.6777 139.006 21.7002C138.989 21.7227 138.961 21.7311 138.922 21.7255C138.753 21.703 138.554 21.6805 138.324 21.6581C138.093 21.63 137.801 21.616 137.448 21.616C137.015 21.616 136.676 21.6497 136.429 21.717C136.181 21.7844 135.996 21.8771 135.873 21.995C135.699 22.1522 135.558 22.3965 135.451 22.7278C135.345 23.0535 135.291 23.4859 135.291 24.025ZM142.182 21.6412C141.98 21.6412 141.772 21.644 141.558 21.6497C141.345 21.6497 141.168 21.6525 141.028 21.6581C140.932 21.6637 140.873 21.6862 140.851 21.7255C140.828 21.7592 140.817 21.8209 140.817 21.9108V23.5448C140.817 23.6347 140.828 23.688 140.851 23.7049C140.879 23.7217 140.924 23.7302 140.986 23.7302H143.706C143.734 23.7302 143.757 23.7442 143.774 23.7723C143.79 23.7947 143.799 23.82 143.799 23.8481C143.799 23.893 143.774 23.9548 143.723 24.0334C143.678 24.112 143.625 24.1653 143.563 24.1934C143.535 24.2159 143.496 24.2299 143.445 24.2355C143.4 24.2355 143.338 24.2355 143.26 24.2355H140.994C140.915 24.2355 140.865 24.2524 140.842 24.2861C140.826 24.3142 140.817 24.3703 140.817 24.4545V26.1055C140.817 26.2009 140.834 26.2655 140.868 26.2992C140.901 26.3329 140.96 26.3497 141.045 26.3497C141.162 26.3553 141.303 26.3581 141.466 26.3581C141.634 26.3581 141.862 26.3581 142.148 26.3581C142.569 26.3581 142.934 26.3525 143.243 26.3413C143.557 26.3301 143.821 26.3188 144.035 26.3076C144.097 26.3076 144.127 26.3357 144.127 26.3918C144.127 26.4536 144.094 26.5322 144.026 26.6277C143.959 26.7175 143.894 26.7765 143.833 26.8046C143.771 26.8326 143.594 26.8495 143.302 26.8551C143.01 26.8607 142.645 26.8635 142.207 26.8635C141.836 26.8635 141.502 26.8635 141.205 26.8635C140.913 26.8635 140.657 26.8579 140.438 26.8467C140.404 26.8467 140.362 26.8326 140.312 26.8046C140.267 26.7765 140.244 26.7119 140.244 26.6108V21.338C140.244 21.265 140.264 21.2201 140.303 21.2032C140.343 21.1864 140.376 21.178 140.404 21.178C140.657 21.1667 140.913 21.1583 141.171 21.1527C141.435 21.1415 141.749 21.1359 142.114 21.1359C142.535 21.1359 142.898 21.1415 143.201 21.1527C143.51 21.1583 143.703 21.1695 143.782 21.1864C143.81 21.1976 143.838 21.2173 143.866 21.2454C143.9 21.2734 143.931 21.3071 143.959 21.3464C143.987 21.3801 144.009 21.4166 144.026 21.4559C144.043 21.4952 144.052 21.5317 144.052 21.5654C144.052 21.6384 144.012 21.6749 143.934 21.6749C143.732 21.6637 143.473 21.6553 143.159 21.6497C142.844 21.644 142.519 21.6412 142.182 21.6412Z" fill="#F1F1F1"/>
<path d="M7.99922 3C3.57992 3 0.000244141 6.68193 0.000244141 11.2228C0.000244141 14.7258 2.13412 17.7193 5.1322 18.9003L4.19223 19.8623C3.9383 20.1276 3.94239 20.5528 4.20247 20.8139C4.25981 20.8707 4.32739 20.917 4.40111 20.9507C4.64481 21.0518 4.92332 20.9949 5.10968 20.8033L6.56366 19.3087C7.03877 19.4013 7.52002 19.4455 8.00127 19.4455C12.4206 19.4455 16.0002 15.7636 16.0002 11.2228C15.9982 6.68193 12.4185 3 7.99922 3ZM1.23101 11.2228C1.23101 7.38505 4.26596 4.26731 7.99717 4.26731C8.15895 4.26731 8.32278 4.27152 8.48457 4.28836L3.69255 9.21865C2.18122 10.7744 2.02968 12.1701 3.23997 13.4121C4.14718 14.3447 5.7097 13.9321 7.92959 12.1764C10.1515 10.4249 11.456 9.75125 11.8451 10.1512C12.4513 10.7744 12.2977 11.5491 11.3966 12.4795L6.10085 17.9024C3.29322 17.0541 1.23101 14.3826 1.23101 11.2228ZM7.99922 18.1782C7.89068 18.1782 7.77805 18.174 7.66951 18.1677L12.2997 13.4079C13.8131 11.8543 13.9626 10.4565 12.7523 9.21444C11.8451 8.28395 10.2826 8.69446 8.06271 10.4502C5.84691 12.2017 4.53627 12.8816 4.14718 12.4753C3.54101 11.8522 3.69255 11.0754 4.59976 10.147L10.0184 4.57887C12.7667 5.46514 14.7674 8.10712 14.7674 11.2207C14.7674 15.0605 11.7284 18.1782 7.99922 18.1782Z" fill="#F1F1F1"/>
<path d="M3.87464 21.6914C3.5273 21.6914 3.24603 22.0128 3.24414 22.4097C3.24414 22.8066 3.52541 23.128 3.87275 23.1302C4.22009 23.1302 4.50136 22.8088 4.50325 22.4119C4.50325 22.222 4.43718 22.0387 4.31826 21.9028C4.20122 21.7669 4.04265 21.6914 3.87464 21.6914Z" fill="#F1F1F1"/>
<path d="M24.4043 3.01367H33.724V5.14483H24.4043C22.5392 5.14483 21.6085 5.8545 21.6085 7.27383C21.6085 8.19705 23.6284 8.96064 27.6663 9.56461C31.7041 10.1686 33.724 11.5361 33.724 13.6651C33.724 16.506 32.1704 17.9253 29.0632 17.9253H19.7454V15.7941H29.0651C30.9282 15.7941 31.8608 15.0845 31.8608 13.663C31.8608 12.7398 29.8409 11.9762 25.8031 11.3722C21.7652 10.7682 19.7454 9.40068 19.7454 7.27168C19.7454 4.43301 21.2971 3.01367 24.4043 3.01367Z" fill="#F1F1F1"/>
<path d="M44.9078 5.14052H35.5881V3.01367H44.9078C48.015 3.01367 49.5686 4.43301 49.5686 7.27383C49.5686 10.1147 48.015 11.534 44.9078 11.534H37.4513V17.921H35.5862V9.39852H44.9059C46.771 9.39852 47.7016 8.68885 47.7016 7.26736C47.7016 5.84587 46.7709 5.13836 44.9078 5.14052Z" fill="#F1F1F1"/>
<path d="M55.7099 3.01367H60.3707C63.476 3.01367 65.0296 4.43301 65.0296 7.27168V13.6608C65.0296 16.5017 63.476 17.921 60.3688 17.921H55.7099C52.6027 17.921 51.051 16.5017 51.0491 13.6608V7.26952C51.0491 4.43085 52.6027 3.01367 55.7099 3.01367ZM60.3707 5.14267H55.7099C53.8467 5.14267 52.9141 5.85234 52.9141 7.27168V13.6587C52.9141 15.078 53.8467 15.7877 55.7099 15.7898H60.3707C62.2357 15.7898 63.1664 15.0802 63.1664 13.6587V7.26952C63.1664 5.85018 62.2338 5.14052 60.3707 5.14052V5.14267Z" fill="#F1F1F1"/>
<path d="M76.215 5.14052H66.8953V3.01367H76.215C79.3222 3.01367 80.8758 4.43301 80.8758 7.27383C80.8758 10.1147 79.3222 11.534 76.215 11.534H75.6656L81.2571 17.9232H78.6294L73.0379 11.5318H68.7603V17.921H66.8953V9.39852H76.215C78.08 9.39852 79.0107 8.68885 79.0107 7.26736C79.0107 5.84587 78.0781 5.13836 76.215 5.14052Z" fill="#F1F1F1"/>
<path d="M87.4928 5.14052H81.4351V3.01367H95.4155V5.14483H89.3578V17.9232H87.4928V5.14052Z" fill="#F1F1F1"/>
<path d="M106.598 5.14052H97.2778V3.01367H106.598C109.705 3.01367 111.258 4.43301 111.258 7.27383C111.258 10.1147 109.705 11.534 106.598 11.534H106.048L111.64 17.9232H109.012L103.42 11.5297H99.141V17.9188H97.2778V9.39637H106.598C108.463 9.39637 109.393 8.6867 109.393 7.26521C109.393 5.84803 108.463 5.13836 106.598 5.14052Z" fill="#F1F1F1"/>
<path d="M117.493 3.01367H126.813V5.14483H117.493C115.63 5.14483 114.697 5.8545 114.697 7.27383V9.39852H126.813V11.5297H114.697V13.6587C114.697 15.078 115.63 15.7877 117.493 15.7898H126.813V17.921H117.493C114.386 17.921 112.834 16.5017 112.832 13.6608V7.26952C112.832 4.43085 114.386 3.01367 117.493 3.01367Z" fill="#F1F1F1"/>
<path d="M140.795 7.26972V3.01172H142.658V7.27188C142.658 10.1127 141.104 11.532 137.997 11.532H137.922L143.589 17.9212H140.961L135.294 11.5299H133.336C131.471 11.5299 130.541 12.2395 130.541 13.6589V17.919H128.676V13.6589C128.676 10.8181 130.229 9.39872 133.336 9.39872H133.41L127.745 3.01172H130.373L136.04 9.39657H137.997C139.862 9.39872 140.795 8.68905 140.795 7.26972Z" fill="#F1F1F1"/>
<path d="M147.613 2.03016e-06C149.48 0.00215907 150.988 1.72995 150.983 3.85895C150.977 5.98796 149.465 7.70928 147.608 7.7028C145.742 7.69633 144.238 5.9707 144.242 3.84601C144.245 1.71485 145.752 -0.00215501 147.613 2.03016e-06ZM150.513 3.85248C150.515 2.02115 149.225 0.54358 147.617 0.537109C146.016 0.528481 144.714 2.01468 144.712 3.84817C144.71 5.68166 146.011 7.16786 147.613 7.16354C149.218 7.16354 150.511 5.68597 150.513 3.85248Z" fill="#F1F1F1"/>
<path d="M149.26 3.69883C149.133 3.87139 149.024 4.02454 148.911 4.17554C148.786 4.34379 148.633 4.34163 148.507 4.17122C148.397 4.02023 148.288 3.8714 148.159 3.72472C148.159 3.75276 148.159 3.7808 148.159 3.80884C148.159 4.12161 148.161 4.43654 148.159 4.74931C148.159 4.87226 148.095 4.96717 147.999 5.00384C147.904 5.03835 147.793 5.00384 147.738 4.90462C147.712 4.85501 147.691 4.7903 147.691 4.73206C147.687 4.1475 147.689 3.56294 147.689 2.97622C147.689 2.83817 147.748 2.74326 147.848 2.70228C147.948 2.66129 148.044 2.6958 148.121 2.80366C148.295 3.03877 148.467 3.27605 148.639 3.51333C148.661 3.54353 148.682 3.57372 148.71 3.61039C148.816 3.46587 148.918 3.32782 149.02 3.18761C149.114 3.05819 149.207 2.92877 149.303 2.8015C149.382 2.69581 149.479 2.66345 149.577 2.70444C149.677 2.74758 149.73 2.84248 149.73 2.98269C149.73 3.56294 149.73 4.14103 149.73 4.72127C149.73 4.89383 149.635 5.01247 149.498 5.01463C149.358 5.01678 149.26 4.89599 149.26 4.71911C149.26 4.41497 149.26 4.10867 149.26 3.80453V3.69883Z" fill="#F1F1F1"/>
<path d="M146.594 3.22473C146.594 3.26787 146.594 3.30023 146.594 3.33474C146.594 3.78557 146.594 4.23639 146.594 4.68721C146.594 4.72819 146.592 4.77133 146.585 4.81232C146.558 4.9439 146.455 5.02587 146.332 5.01292C146.222 5.00214 146.132 4.8986 146.126 4.76918C146.122 4.66564 146.124 4.5621 146.124 4.45856C146.124 4.08108 146.124 3.7036 146.124 3.32612V3.22689C146 3.22689 145.883 3.2312 145.766 3.22473C145.711 3.22258 145.652 3.20748 145.605 3.17944C145.514 3.12335 145.477 3.0004 145.503 2.89039C145.531 2.77607 145.611 2.69194 145.715 2.69194C146.143 2.68979 146.572 2.68763 147 2.69194C147.125 2.69194 147.219 2.81274 147.219 2.9551C147.219 3.10394 147.125 3.21826 146.989 3.22473C146.891 3.2312 146.792 3.22689 146.694 3.22689C146.666 3.22473 146.636 3.22473 146.594 3.22473Z" fill="#F1F1F1"/>
</svg>
