<svg width="159" height="52" viewBox="0 0 159 52" fill="none" xmlns="http://www.w3.org/2000/svg">
<path d="M15.0837 10.9322C12.3352 10.9321 9.6735 11.8943 7.56036 13.6517C5.44722 15.4092 4.01604 17.8509 3.51516 20.5534C3.01428 23.2558 3.47531 26.0483 4.81826 28.4463C6.16121 30.8443 8.30131 32.6964 10.8672 33.6814L9.48593 35.0557C9.3073 35.2344 9.20698 35.4768 9.20704 35.7294C9.20711 35.9821 9.30755 36.2244 9.48628 36.4031C9.665 36.5817 9.90736 36.682 10.1601 36.682C10.4127 36.6819 10.6551 36.5815 10.8337 36.4027L12.9705 34.2652C13.6681 34.3971 14.3765 34.4628 15.0865 34.4614C18.2072 34.4614 21.2001 33.2217 23.4068 31.015C25.6135 28.8083 26.8532 25.8154 26.8532 22.6947C26.8532 19.574 25.6135 16.5811 23.4068 14.3744C21.2001 12.1677 18.2072 10.928 15.0865 10.928L15.0837 10.9322ZM5.1319 22.6954C5.1319 17.2038 9.59486 12.7429 15.0844 12.7429C15.3232 12.7429 15.562 12.7499 15.8015 12.7715L8.75409 19.8246C6.53017 22.0494 6.3081 24.0492 8.08789 25.8239C9.42075 27.1567 11.7199 26.5673 14.9852 24.0557C18.252 21.5511 20.1716 20.5853 20.7443 21.1584C21.6353 22.0494 21.4105 23.1577 20.085 24.4908L12.2967 32.2533C8.16261 31.0431 5.1319 27.2184 5.1319 22.6954ZM15.0837 32.65C14.9245 32.65 14.7576 32.643 14.5983 32.6353L21.4084 25.8253C23.6327 23.6013 23.8548 21.6018 22.0746 19.8267C20.7422 18.4934 18.4433 19.0825 15.1779 21.5941C11.9175 24.1011 9.99011 25.0718 9.41819 24.4922C8.52713 23.6011 8.7492 22.4903 10.0844 21.1598L18.0557 13.1919C22.0983 14.4601 25.0389 18.2415 25.0389 22.6968C25.0389 28.1891 20.5697 32.652 15.0844 32.652L15.0837 32.65Z" fill="#F1F1F1"/>
<path d="M7.89122 37.0112C7.65906 37.0112 7.43406 37.0917 7.25457 37.2389C7.07509 37.3862 6.95221 37.5911 6.90688 37.8188C6.86156 38.0465 6.89659 38.2829 7.006 38.4876C7.11541 38.6924 7.29244 38.8529 7.50692 38.9418C7.7214 39.0306 7.96006 39.0424 8.18224 38.975C8.40441 38.9077 8.59636 38.7653 8.72536 38.5723C8.85437 38.3793 8.91246 38.1475 8.88973 37.9165C8.867 37.6854 8.76486 37.4694 8.60071 37.3052C8.41256 37.117 8.15734 37.0113 7.89122 37.0112Z" fill="#F1F1F1"/>
<path d="M36.2316 12.2612H44.9676V14.007H36.2316C34.4835 14.007 33.6096 14.589 33.6101 15.7528C33.6101 16.5098 35.5028 17.1362 39.2881 17.632C43.0735 18.1278 44.9662 19.2489 44.9662 20.9951C44.9662 23.3229 43.5102 24.4879 40.5982 24.4902H31.8636V22.7444H40.5996C42.3468 22.7444 43.2204 22.1625 43.2204 20.9986C43.2204 20.2416 41.3277 19.6153 37.5423 19.1194C33.757 18.6236 31.8643 17.5024 31.8643 15.7556C31.8638 13.426 33.3196 12.2612 36.2316 12.2612Z" fill="#F1F1F1"/>
<path d="M55.4509 14.007H46.7177V12.2612H55.4536C58.3666 12.2612 59.8226 13.4251 59.8216 15.7528C59.8207 18.0806 58.3647 19.2444 55.4536 19.2444H48.4635V24.4818H46.7177V17.5H55.4536C57.2008 17.5 58.0747 16.9181 58.0751 15.7542C58.0756 14.5904 57.2008 14.008 55.4509 14.007Z" fill="#F1F1F1"/>
<path d="M65.5766 12.2612H69.9446C72.8552 12.2612 74.3108 13.4251 74.3112 15.7528V20.9944C74.3112 23.3222 72.8552 24.486 69.9432 24.486H65.5766C62.6646 24.486 61.2086 23.3222 61.2086 20.9944V15.7542C61.2086 13.426 62.6646 12.2617 65.5766 12.2612ZM69.9446 14.007H65.5766C63.8294 14.007 62.9558 14.589 62.9558 15.7528V20.9902C62.9558 22.1541 63.8294 22.736 65.5766 22.736H69.9446C71.6918 22.736 72.5654 22.1541 72.5654 20.9902V15.7542C72.5654 14.5904 71.6918 14.0084 69.9446 14.0084V14.007Z" fill="#F1F1F1"/>
<path d="M84.7963 14.007H76.0596V12.2612H84.7963C87.7083 12.2612 89.1643 13.4251 89.1643 15.7528C89.1643 18.0806 87.7083 19.2444 84.7963 19.2444H84.281L89.5247 24.4923H87.061L81.8194 19.2486H77.8096V24.4909H76.0638V17.5H84.8005C86.5477 17.5 87.4213 16.9181 87.4213 15.7542C87.4213 14.5904 86.5463 14.008 84.7963 14.007Z" fill="#F1F1F1"/>
<path d="M95.3668 14.007H89.6888V12.2612H102.793V14.007H97.1154V24.4888H95.3696L95.3668 14.007Z" fill="#F1F1F1"/>
<path d="M113.277 14.007H104.539V12.2612H113.275C116.187 12.2612 117.643 13.4251 117.643 15.7528C117.643 18.0806 116.187 19.2444 113.275 19.2444H112.759L118.001 24.486H115.538L110.3 19.2423H106.284V24.4846H104.539V17.5H113.275C115.023 17.5 115.896 16.9181 115.895 15.7542C115.894 14.5904 115.021 14.008 113.277 14.007Z" fill="#F1F1F1"/>
<path d="M123.489 12.2612H132.226V14.007H123.489C121.743 14.007 120.869 14.589 120.868 15.7528V17.4986H132.224V19.2444H120.868V20.9902C120.868 22.1541 121.742 22.736 123.489 22.736H132.226V24.4818H123.489C120.577 24.4818 119.121 23.318 119.121 20.9902V15.7528C119.121 13.4256 120.577 12.2617 123.489 12.2612Z" fill="#F1F1F1"/>
<path d="M145.33 15.754V12.2623H147.076V15.754C147.076 18.0817 145.62 19.2456 142.708 19.2456H142.638L147.95 24.4872H145.486L140.175 19.2435H138.34C136.593 19.2435 135.719 19.8254 135.719 20.9893V24.4809H133.974V20.9893C133.974 18.6615 135.43 17.4977 138.342 17.4977H138.411L133.104 12.2603H135.568L140.879 17.4977H142.714C144.458 17.4991 145.33 16.9178 145.33 15.754Z" fill="#F1F1F1"/>
<path d="M45.6608 39.5803C45.3038 39.5803 45.041 39.5159 44.8725 39.387C44.7138 39.2481 44.6097 38.9507 44.5601 38.4945L43.8164 31.5039C43.7966 31.3155 43.752 31.1965 43.6826 31.1469C43.6131 31.0874 43.4793 31.0577 43.281 31.0577C43.0727 31.0577 42.924 31.0924 42.8348 31.1618C42.7455 31.2312 42.686 31.3601 42.6563 31.5485L41.6151 37.0518C41.5358 37.4583 41.4465 37.7806 41.3474 38.0186C41.2482 38.2466 41.1441 38.4152 41.035 38.5243C40.7177 38.792 40.1376 38.9259 39.2948 38.9259C38.918 38.9259 38.561 38.8912 38.2239 38.8218C37.8967 38.7523 37.6636 38.6532 37.5248 38.5243C37.4058 38.3954 37.3067 38.2169 37.2273 37.9888C37.148 37.7509 37.0736 37.4484 37.0042 37.0815L35.9779 31.5485C35.9284 31.3403 35.8639 31.2064 35.7846 31.1469C35.7152 31.0874 35.5863 31.0577 35.3979 31.0577C35.1797 31.0577 35.031 31.0973 34.9517 31.1766C34.8822 31.256 34.8376 31.4196 34.8178 31.6675L34.0592 38.6284C34.0196 38.9854 33.9254 39.2333 33.7766 39.3721C33.6279 39.5109 33.385 39.5803 33.0478 39.5803H32.3636C32.2347 39.5803 32.1752 39.4911 32.1851 39.3126L33.0627 31.3998C33.0924 31.132 33.1271 30.9139 33.1668 30.7453C33.2065 30.5668 33.2511 30.4181 33.3007 30.2991C33.3503 30.1801 33.4048 30.0859 33.4643 30.0165C33.5238 29.9372 33.5833 29.8678 33.6428 29.8083C33.9204 29.5405 34.5302 29.4067 35.4722 29.4067C35.8887 29.4067 36.2308 29.4364 36.4985 29.4959C36.7663 29.5554 36.9695 29.6447 37.1084 29.7636C37.267 29.9025 37.391 30.0859 37.4802 30.314C37.5794 30.5321 37.6686 30.8693 37.7479 31.3254L38.7742 36.8287C38.804 37.0072 38.8535 37.1361 38.923 37.2154C39.0023 37.2947 39.1361 37.3344 39.3245 37.3344C39.5328 37.3344 39.6666 37.2997 39.7261 37.2303C39.7955 37.1509 39.855 37.0121 39.9046 36.8138L40.9607 31.2956C41.04 30.8494 41.1342 30.5172 41.2433 30.2991C41.3622 30.0809 41.4912 29.9074 41.63 29.7785C41.7688 29.6694 41.9969 29.5802 42.3142 29.5108C42.6315 29.4414 43.0132 29.4067 43.4594 29.4067C43.9949 29.4067 44.3866 29.4463 44.6345 29.5257C44.8824 29.5951 45.0609 29.6694 45.1699 29.7488C45.2988 29.8479 45.4079 29.9867 45.4972 30.1652C45.5963 30.3338 45.6657 30.6214 45.7054 31.0279L46.5681 39.3423C46.578 39.4217 46.5581 39.4812 46.5086 39.5208C46.4689 39.5605 46.4193 39.5803 46.3598 39.5803H45.6608ZM49.4836 38.7028C49.4042 38.9903 49.2753 39.2085 49.0968 39.3572C48.9184 39.506 48.6308 39.5803 48.2342 39.5803H47.5202C47.4607 39.5803 47.4111 39.5605 47.3715 39.5208C47.3417 39.4712 47.3269 39.4217 47.3269 39.3721C47.3269 39.3225 47.3368 39.2581 47.3566 39.1787C47.3764 39.0994 47.4012 39.0102 47.431 38.911L49.4538 32.1137C49.553 31.7567 49.6472 31.4543 49.7364 31.2064C49.8356 30.9486 49.9298 30.7354 50.019 30.5668C50.1083 30.3983 50.1925 30.2644 50.2719 30.1652C50.3512 30.0562 50.4355 29.9669 50.5247 29.8975C50.6933 29.7488 50.9412 29.6298 51.2684 29.5405C51.5956 29.4414 52.027 29.3918 52.5624 29.3918C53.0979 29.3918 53.5094 29.4315 53.7969 29.5108C54.0944 29.5901 54.3324 29.7091 54.5109 29.8678C54.5803 29.9273 54.6497 30.0115 54.7191 30.1206C54.7885 30.2297 54.8579 30.3685 54.9273 30.5371C55.0067 30.7056 55.086 30.9188 55.1653 31.1766C55.2546 31.4245 55.3488 31.722 55.4479 32.0691L57.4261 39.1044C57.4559 39.2035 57.4708 39.268 57.4708 39.2977C57.4807 39.3176 57.4856 39.3572 57.4856 39.4167C57.4856 39.5258 57.4162 39.5803 57.2774 39.5803H56.4891C56.0825 39.5803 55.79 39.506 55.6115 39.3572C55.443 39.2085 55.3141 38.9755 55.2248 38.6581L54.615 36.5461C54.5654 36.3775 54.4911 36.2684 54.3919 36.2189C54.3027 36.1693 54.1291 36.1445 53.8713 36.1445H50.8222C50.5842 36.1445 50.4156 36.1742 50.3165 36.2337C50.2173 36.2833 50.133 36.4221 50.0636 36.6502L49.4836 38.7028ZM54.0349 34.2258C54.0349 34.1861 54.02 34.1068 53.9903 33.9878C53.9606 33.8688 53.9209 33.7151 53.8713 33.5267L53.5738 32.4409C53.5143 32.2327 53.4598 32.0641 53.4102 31.9352C53.3706 31.7964 53.3309 31.6873 53.2912 31.608C53.2516 31.5287 53.2119 31.4642 53.1722 31.4146C53.1425 31.3651 53.1127 31.3254 53.083 31.2956C53.0136 31.2461 52.9293 31.2064 52.8301 31.1766C52.7409 31.137 52.617 31.1172 52.4583 31.1172C52.2798 31.1172 52.136 31.137 52.027 31.1766C51.9278 31.2064 51.8386 31.2461 51.7592 31.2956C51.67 31.3651 51.5758 31.489 51.4766 31.6675C51.3775 31.846 51.2684 32.1385 51.1494 32.545L50.8371 33.5862C50.7974 33.7349 50.7627 33.8688 50.7329 33.9878C50.7032 34.0969 50.6883 34.1762 50.6883 34.2258C50.6883 34.3547 50.728 34.4439 50.8073 34.4935C50.8866 34.5332 51.0354 34.553 51.2535 34.553H53.5441C53.7523 34.553 53.8862 34.5282 53.9457 34.4786C54.0052 34.4191 54.0349 34.3348 54.0349 34.2258ZM59.0727 29.7636C59.0727 29.605 59.1421 29.5356 59.2809 29.5554C59.5288 29.5455 59.7966 29.5356 60.0841 29.5257C60.3717 29.5058 60.6642 29.4959 60.9617 29.4959C61.2592 29.486 61.5517 29.481 61.8392 29.481C62.1367 29.4711 62.4143 29.4662 62.6722 29.4662C63.2076 29.4662 63.6637 29.4761 64.0405 29.4959C64.4273 29.5157 64.7495 29.5455 65.0073 29.5852C65.2751 29.6149 65.4932 29.6645 65.6618 29.7339C65.8403 29.7934 65.9989 29.8678 66.1377 29.957C66.4055 30.1355 66.6137 30.3983 66.7624 30.7453C66.9112 31.0824 66.9855 31.5435 66.9855 32.1286C66.9855 32.7334 66.9161 33.2342 66.7773 33.6308C66.6484 34.0175 66.4749 34.3596 66.2567 34.6571C66.1477 34.7959 66.0683 34.905 66.0188 34.9843C65.9791 35.0637 65.9593 35.1579 65.9593 35.2669C65.9593 35.3859 65.9791 35.5247 66.0188 35.6834C66.0584 35.8421 66.1328 36.0652 66.2419 36.3527L67.2979 39.2531C67.3177 39.3324 67.3078 39.4068 67.2682 39.4762C67.2285 39.5456 67.169 39.5803 67.0897 39.5803H66.465C66.2567 39.5803 66.0783 39.5654 65.9295 39.5357C65.7808 39.506 65.6469 39.4465 65.5279 39.3572C65.4089 39.268 65.2999 39.144 65.2007 38.9854C65.1115 38.8267 65.0222 38.6234 64.933 38.3755L64.3231 36.6651C64.2042 36.318 64.0653 36.0899 63.9067 35.9809C63.748 35.8718 63.4952 35.8173 63.1481 35.8173H61.3484C61.2096 35.8173 61.1154 35.8421 61.0658 35.8916C61.0162 35.9313 60.9914 36.0305 60.9914 36.1891V39.1639C60.9914 39.3225 60.9617 39.4316 60.9022 39.4911C60.8526 39.5506 60.7584 39.5803 60.6196 39.5803H59.2809C59.1421 39.5803 59.0727 39.501 59.0727 39.3423V29.7636ZM65.0371 32.5004C65.0371 32.1831 65.0024 31.9352 64.933 31.7567C64.8735 31.5683 64.7793 31.4245 64.6504 31.3254C64.5413 31.2262 64.3579 31.1568 64.1 31.1172C63.8422 31.0676 63.4357 31.0428 62.8804 31.0428C62.7416 31.0428 62.5928 31.0428 62.4342 31.0428C62.2755 31.0428 62.1169 31.0477 61.9582 31.0577C61.8095 31.0577 61.6657 31.0626 61.5269 31.0725C61.398 31.0725 61.2889 31.0725 61.1997 31.0725C61.0509 31.0824 60.9766 31.1816 60.9766 31.37V33.8539C60.9766 34.0126 60.9964 34.1167 61.036 34.1663C61.0856 34.2159 61.1848 34.2406 61.3335 34.2406H63.4753C63.7232 34.2406 63.9017 34.2357 64.0108 34.2258C64.1298 34.2059 64.2389 34.1811 64.338 34.1514C64.3975 34.1316 64.4669 34.077 64.5463 33.9878C64.6355 33.8985 64.7148 33.7845 64.7842 33.6457C64.8536 33.497 64.9131 33.3284 64.9627 33.14C65.0123 32.9417 65.0371 32.7285 65.0371 32.5004ZM70.9131 33.1102C70.9131 33.2391 70.9181 33.3433 70.928 33.4226C70.9379 33.492 70.9578 33.5465 70.9875 33.5862C71.0173 33.6259 71.0619 33.6507 71.1214 33.6606C71.1908 33.6705 71.28 33.6754 71.3891 33.6754H72.5641C72.9806 33.6754 73.288 33.6209 73.4863 33.5118C73.6846 33.3928 73.8681 33.1648 74.0366 32.8276L75.1968 30.5668C75.286 30.3883 75.3802 30.2346 75.4794 30.1057C75.5786 29.9768 75.6876 29.8678 75.8066 29.7785C75.9256 29.6893 76.0595 29.6248 76.2082 29.5852C76.3669 29.5455 76.5553 29.5257 76.7734 29.5257H77.4427C77.4923 29.5257 77.5468 29.5455 77.6063 29.5852C77.6758 29.6248 77.6758 29.7141 77.6063 29.8529L75.6728 33.6308C75.5637 33.8391 75.4794 34.0175 75.4199 34.1663C75.3703 34.3051 75.3455 34.429 75.3455 34.5381C75.3455 34.7662 75.4645 35.1232 75.7025 35.609L77.5915 39.2828C77.641 39.382 77.6361 39.4564 77.5766 39.506C77.527 39.5555 77.4626 39.5803 77.3832 39.5803H76.6842C76.2479 39.5803 75.9157 39.501 75.6876 39.3423C75.4695 39.1837 75.2563 38.9011 75.0481 38.4945L73.9176 36.2486C73.8284 36.0701 73.7392 35.9214 73.6499 35.8024C73.5607 35.6834 73.4615 35.5892 73.3524 35.5198C73.2533 35.4504 73.1343 35.4058 72.9955 35.3859C72.8666 35.3562 72.7079 35.3413 72.5195 35.3413H71.3594C71.161 35.3413 71.0371 35.376 70.9875 35.4454C70.9379 35.5148 70.9131 35.6784 70.9131 35.9363V39.0597C70.9131 39.2481 70.8735 39.382 70.7942 39.4613C70.7148 39.5407 70.576 39.5803 70.3777 39.5803H69.1432C69.0638 39.5803 69.0143 39.5605 68.9944 39.5208C68.9746 39.4812 68.9647 39.4118 68.9647 39.3126V29.7488C68.9647 29.6 69.0291 29.5257 69.158 29.5257H70.4372C70.7545 29.5257 70.9131 29.6942 70.9131 30.0314V33.1102ZM83.3374 31.132C82.9606 31.132 82.6433 31.137 82.3855 31.1469C82.1277 31.1568 81.8847 31.1667 81.6566 31.1766C81.4881 31.1866 81.379 31.2213 81.3294 31.2808C81.2898 31.3303 81.2699 31.4295 81.2699 31.5782V33.378C81.2699 33.5465 81.384 33.6308 81.612 33.6308H86.0444C86.2229 33.6308 86.3121 33.7151 86.3121 33.8837C86.3121 33.9531 86.2923 34.0473 86.2526 34.1663C86.2229 34.2753 86.1783 34.3943 86.1188 34.5232C86.0692 34.6422 86.0047 34.7563 85.9254 34.8653C85.856 34.9744 85.7866 35.0587 85.7172 35.1182C85.6379 35.1678 85.5337 35.1975 85.4048 35.2074C85.2759 35.2174 85.1123 35.2223 84.914 35.2223H81.6269C81.4881 35.2223 81.3939 35.2521 81.3443 35.3116C81.2947 35.371 81.2699 35.4603 81.2699 35.5793V37.498C81.2699 37.6666 81.2997 37.7806 81.3592 37.8401C81.4286 37.8996 81.5476 37.9293 81.7161 37.9293C81.8847 37.9293 82.0781 37.9343 82.2962 37.9442C82.5243 37.9442 82.8515 37.9442 83.2779 37.9442C84.0017 37.9442 84.6314 37.9343 85.1669 37.9145C85.7122 37.8946 86.208 37.8698 86.6542 37.8401C86.8228 37.8401 86.9071 37.9194 86.9071 38.0781C86.9071 38.1871 86.8773 38.3161 86.8178 38.4648C86.7683 38.6036 86.6989 38.7424 86.6096 38.8813C86.5303 39.0102 86.441 39.1292 86.3419 39.2382C86.2526 39.3473 86.1684 39.4217 86.089 39.4613C86.0196 39.4911 85.9155 39.5159 85.7767 39.5357C85.6379 39.5555 85.4495 39.5704 85.2115 39.5803C84.9735 39.5902 84.676 39.5952 84.3191 39.5952C83.9621 39.6051 83.5407 39.6101 83.0548 39.6101C82.2913 39.6101 81.6467 39.6051 81.1212 39.5952C80.6056 39.5952 80.1247 39.5853 79.6784 39.5654C79.6189 39.5654 79.5396 39.5407 79.4405 39.4911C79.3512 39.4415 79.3066 39.3324 79.3066 39.1639V29.8678C79.3066 29.7389 79.3463 29.6546 79.4256 29.6149C79.5148 29.5752 79.5842 29.5554 79.6338 29.5554C79.8916 29.5455 80.1445 29.5405 80.3924 29.5405C80.6502 29.5306 80.913 29.5257 81.1807 29.5257C81.4484 29.5157 81.731 29.5108 82.0285 29.5108C82.3359 29.5009 82.6681 29.4959 83.025 29.4959C83.382 29.4959 83.7291 29.4959 84.0662 29.4959C84.4133 29.4959 84.7256 29.5009 85.0032 29.5108C85.2809 29.5207 85.5189 29.5356 85.7172 29.5554C85.9155 29.5653 86.0543 29.5852 86.1336 29.6149C86.2031 29.6447 86.2725 29.7141 86.3419 29.8231C86.4212 29.9223 86.4906 30.0413 86.5501 30.1801C86.6195 30.309 86.6741 30.4478 86.7137 30.5966C86.7633 30.7354 86.7881 30.8593 86.7881 30.9684C86.7881 31.137 86.6939 31.2213 86.5055 31.2213C86.3171 31.2114 86.0989 31.2014 85.851 31.1915C85.6032 31.1816 85.3404 31.1717 85.0627 31.1618C84.795 31.1519 84.5124 31.1469 84.2149 31.1469C83.9175 31.137 83.6249 31.132 83.3374 31.132ZM93.0312 39.268C93.0312 39.4762 92.937 39.5803 92.7486 39.5803H91.291C91.1522 39.5803 91.0828 39.501 91.0828 39.3423V32.1286C91.0828 31.9104 91.0729 31.7319 91.053 31.5931C91.0332 31.4543 90.9836 31.3502 90.9043 31.2808C90.8349 31.2114 90.7308 31.1667 90.5919 31.1469C90.463 31.1172 90.2796 31.1023 90.0416 31.1023H87.6469C87.518 31.1023 87.4536 31.0477 87.4536 30.9387C87.4536 30.8197 87.4635 30.6957 87.4833 30.5668C87.5032 30.428 87.5279 30.2991 87.5577 30.1801C87.5974 30.0611 87.637 29.957 87.6767 29.8678C87.7263 29.7686 87.7758 29.6992 87.8254 29.6595C87.9147 29.6 88.0337 29.5653 88.1824 29.5554C88.341 29.5356 88.5493 29.5257 88.8071 29.5257H96.4819C96.6406 29.5257 96.7199 29.5951 96.7199 29.7339C96.7199 29.8529 96.71 29.9818 96.6902 30.1206C96.6704 30.2495 96.6456 30.3735 96.6158 30.4925C96.5861 30.6114 96.5464 30.7156 96.4968 30.8048C96.4572 30.894 96.4125 30.9585 96.363 30.9982C96.3035 31.0477 96.2192 31.0775 96.1101 31.0874C96.001 31.0973 95.8523 31.1023 95.6639 31.1023H93.9534C93.7551 31.1023 93.5964 31.1172 93.4775 31.1469C93.3585 31.1667 93.2643 31.2163 93.1948 31.2956C93.1354 31.3651 93.0907 31.4741 93.061 31.6229C93.0412 31.7617 93.0312 31.9501 93.0312 32.1881V39.268ZM105.838 32.4558C105.838 33.1102 105.729 33.6903 105.511 34.196C105.303 34.6918 105.06 35.0537 104.782 35.2818C104.534 35.4801 104.212 35.6239 103.815 35.7131C103.429 35.7925 102.893 35.8321 102.209 35.8321H100.275C100.137 35.8321 100.042 35.8619 99.9929 35.9214C99.9532 35.971 99.9334 36.08 99.9334 36.2486V39.1639C99.9334 39.3225 99.9036 39.4316 99.8441 39.4911C99.7945 39.5506 99.7003 39.5803 99.5615 39.5803H98.2229C98.0841 39.5803 98.0146 39.501 98.0146 39.3423V29.8083C98.0146 29.719 98.0295 29.6595 98.0593 29.6298C98.0989 29.6 98.1535 29.5802 98.2229 29.5703C98.7286 29.5306 99.274 29.5058 99.859 29.4959C100.454 29.486 101.064 29.481 101.688 29.481C102.194 29.481 102.621 29.491 102.968 29.5108C103.325 29.5306 103.622 29.5653 103.86 29.6149C104.108 29.6546 104.311 29.7041 104.47 29.7636C104.629 29.8231 104.767 29.8975 104.886 29.9867C105.015 30.076 105.134 30.19 105.243 30.3288C105.362 30.4578 105.466 30.6214 105.556 30.8197C105.645 31.0081 105.714 31.2411 105.764 31.5187C105.813 31.7865 105.838 32.0988 105.838 32.4558ZM103.875 32.6492C103.875 32.2723 103.83 31.9848 103.741 31.7865C103.662 31.5882 103.553 31.4444 103.414 31.3551C103.364 31.3155 103.3 31.2758 103.22 31.2361C103.141 31.1965 103.037 31.1667 102.908 31.1469C102.779 31.1271 102.621 31.1122 102.432 31.1023C102.254 31.0824 102.031 31.0725 101.763 31.0725C101.446 31.0725 101.138 31.0775 100.841 31.0874C100.543 31.0874 100.31 31.0924 100.142 31.1023C99.9929 31.1122 99.9185 31.2114 99.9185 31.3998V33.8985C99.9185 34.0374 99.9383 34.1316 99.978 34.1811C100.028 34.2307 100.122 34.2555 100.261 34.2555H101.971C102.308 34.2555 102.571 34.2456 102.759 34.2258C102.948 34.2059 103.111 34.1613 103.25 34.0919C103.389 34.0027 103.528 33.844 103.667 33.6159C103.805 33.3879 103.875 33.0656 103.875 32.6492ZM107.484 29.7339C107.484 29.6843 107.499 29.6397 107.529 29.6C107.558 29.5505 107.608 29.5257 107.677 29.5257H108.867C109.095 29.5257 109.244 29.5703 109.313 29.6595C109.393 29.7389 109.432 29.9223 109.432 30.2099V37.5129C109.432 37.6814 109.457 37.7955 109.507 37.855C109.566 37.9145 109.675 37.9442 109.834 37.9442C110.003 37.9442 110.26 37.9492 110.607 37.9591C110.964 37.9591 111.341 37.9591 111.738 37.9591C112.333 37.9591 112.928 37.9492 113.523 37.9293C114.128 37.8996 114.633 37.8698 115.04 37.8401C115.218 37.8203 115.303 37.8996 115.293 38.0781C115.293 38.1871 115.268 38.3111 115.218 38.4499C115.169 38.5788 115.109 38.7127 115.04 38.8515C114.98 38.9804 114.906 39.0994 114.817 39.2085C114.737 39.3176 114.658 39.3969 114.579 39.4465C114.499 39.4762 114.4 39.506 114.281 39.5357C114.162 39.5555 113.994 39.5704 113.776 39.5803C113.567 39.6002 113.3 39.6101 112.972 39.6101C112.655 39.62 112.254 39.6249 111.768 39.6249C110.974 39.6249 110.231 39.62 109.537 39.6101C108.852 39.6101 108.287 39.6002 107.841 39.5803C107.781 39.5803 107.707 39.5555 107.618 39.506C107.529 39.4564 107.484 39.3523 107.484 39.1936V29.7339ZM117.766 38.7028C117.687 38.9903 117.558 39.2085 117.38 39.3572C117.201 39.506 116.914 39.5803 116.517 39.5803H115.803C115.743 39.5803 115.694 39.5605 115.654 39.5208C115.624 39.4712 115.61 39.4217 115.61 39.3721C115.61 39.3225 115.62 39.2581 115.639 39.1787C115.659 39.0994 115.684 39.0102 115.714 38.911L117.737 32.1137C117.836 31.7567 117.93 31.4543 118.019 31.2064C118.118 30.9486 118.213 30.7354 118.302 30.5668C118.391 30.3983 118.475 30.2644 118.555 30.1652C118.634 30.0562 118.718 29.9669 118.807 29.8975C118.976 29.7488 119.224 29.6298 119.551 29.5405C119.878 29.4414 120.31 29.3918 120.845 29.3918C121.381 29.3918 121.792 29.4315 122.08 29.5108C122.377 29.5901 122.615 29.7091 122.794 29.8678C122.863 29.9273 122.932 30.0115 123.002 30.1206C123.071 30.2297 123.141 30.3685 123.21 30.5371C123.289 30.7056 123.369 30.9188 123.448 31.1766C123.537 31.4245 123.632 31.722 123.731 32.0691L125.709 39.1044C125.739 39.2035 125.754 39.268 125.754 39.2977C125.763 39.3176 125.768 39.3572 125.768 39.4167C125.768 39.5258 125.699 39.5803 125.56 39.5803H124.772C124.365 39.5803 124.073 39.506 123.894 39.3572C123.726 39.2085 123.597 38.9755 123.508 38.6581L122.898 36.5461C122.848 36.3775 122.774 36.2684 122.675 36.2189C122.585 36.1693 122.412 36.1445 122.154 36.1445H119.105C118.867 36.1445 118.698 36.1742 118.599 36.2337C118.5 36.2833 118.416 36.4221 118.346 36.6502L117.766 38.7028ZM122.318 34.2258C122.318 34.1861 122.303 34.1068 122.273 33.9878C122.243 33.8688 122.204 33.7151 122.154 33.5267L121.857 32.4409C121.797 32.2327 121.743 32.0641 121.693 31.9352C121.653 31.7964 121.614 31.6873 121.574 31.608C121.534 31.5287 121.495 31.4642 121.455 31.4146C121.425 31.3651 121.395 31.3254 121.366 31.2956C121.296 31.2461 121.212 31.2064 121.113 31.1766C121.024 31.137 120.9 31.1172 120.741 31.1172C120.563 31.1172 120.419 31.137 120.31 31.1766C120.211 31.2064 120.121 31.2461 120.042 31.2956C119.953 31.3651 119.859 31.489 119.759 31.6675C119.66 31.846 119.551 32.1385 119.432 32.545L119.12 33.5862C119.08 33.7349 119.045 33.8688 119.016 33.9878C118.986 34.0969 118.971 34.1762 118.971 34.2258C118.971 34.3547 119.011 34.4439 119.09 34.4935C119.169 34.5332 119.318 34.553 119.536 34.553H121.827C122.035 34.553 122.169 34.5282 122.228 34.4786C122.288 34.4191 122.318 34.3348 122.318 34.2258ZM128.947 34.5381C128.947 35.3314 129.011 35.961 129.14 36.4271C129.269 36.8832 129.463 37.2104 129.72 37.4088C129.948 37.5872 130.281 37.7261 130.717 37.8252C131.153 37.9145 131.713 37.9591 132.398 37.9591C133.022 37.9591 133.593 37.9293 134.108 37.8698C134.624 37.8004 134.996 37.7558 135.224 37.736C135.263 37.736 135.308 37.7509 135.358 37.7806C135.407 37.8103 135.427 37.8649 135.417 37.9442C135.397 38.0632 135.362 38.1921 135.313 38.3309C135.273 38.4697 135.219 38.6036 135.149 38.7325C135.08 38.8515 135.001 38.9655 134.911 39.0746C134.822 39.1738 134.728 39.2531 134.629 39.3126C134.43 39.4316 134.103 39.5307 133.647 39.6101C133.201 39.6894 132.556 39.7291 131.713 39.7291C130.91 39.7291 130.196 39.6497 129.572 39.4911C128.957 39.3225 128.496 39.0944 128.188 38.8069C128.02 38.6681 127.861 38.4846 127.712 38.2566C127.564 38.0285 127.43 37.7509 127.311 37.4236C127.202 37.0865 127.113 36.6948 127.043 36.2486C126.974 35.7925 126.939 35.2719 126.939 34.6869C126.939 33.5366 127.078 32.5996 127.355 31.8757C127.633 31.1519 128.005 30.6114 128.471 30.2545C128.63 30.1256 128.813 30.0115 129.021 29.9124C129.239 29.8033 129.492 29.7141 129.78 29.6447C130.067 29.5653 130.395 29.5058 130.762 29.4662C131.138 29.4166 131.57 29.3918 132.056 29.3918C132.69 29.3918 133.245 29.4166 133.721 29.4662C134.197 29.5157 134.525 29.6 134.703 29.719C134.822 29.7983 134.921 29.8975 135.001 30.0165C135.09 30.1256 135.164 30.2446 135.224 30.3735C135.283 30.5024 135.328 30.6313 135.358 30.7602C135.397 30.8891 135.417 31.0031 135.417 31.1023C135.417 31.1519 135.397 31.2064 135.358 31.2659C135.328 31.3155 135.278 31.3353 135.209 31.3254C134.872 31.2758 134.475 31.2262 134.019 31.1766C133.573 31.1271 133.042 31.1023 132.427 31.1023C132.041 31.1023 131.704 31.1172 131.416 31.1469C131.138 31.1766 130.9 31.2163 130.702 31.2659C130.504 31.3155 130.335 31.375 130.196 31.4444C130.067 31.5138 129.953 31.5882 129.854 31.6675C129.587 31.8658 129.368 32.2029 129.2 32.6789C129.031 33.1449 128.947 33.7647 128.947 34.5381ZM141.351 31.132C140.974 31.132 140.657 31.137 140.399 31.1469C140.141 31.1568 139.898 31.1667 139.67 31.1766C139.502 31.1866 139.392 31.2213 139.343 31.2808C139.303 31.3303 139.283 31.4295 139.283 31.5782V33.378C139.283 33.5465 139.397 33.6308 139.625 33.6308H144.058C144.236 33.6308 144.326 33.7151 144.326 33.8837C144.326 33.9531 144.306 34.0473 144.266 34.1663C144.236 34.2753 144.192 34.3943 144.132 34.5232C144.083 34.6422 144.018 34.7563 143.939 34.8653C143.869 34.9744 143.8 35.0587 143.731 35.1182C143.651 35.1678 143.547 35.1975 143.418 35.2074C143.289 35.2174 143.126 35.2223 142.927 35.2223H139.64C139.502 35.2223 139.407 35.2521 139.358 35.3116C139.308 35.371 139.283 35.4603 139.283 35.5793V37.498C139.283 37.6666 139.313 37.7806 139.373 37.8401C139.442 37.8996 139.561 37.9293 139.73 37.9293C139.898 37.9293 140.092 37.9343 140.31 37.9442C140.538 37.9442 140.865 37.9442 141.291 37.9442C142.015 37.9442 142.645 37.9343 143.18 37.9145C143.726 37.8946 144.221 37.8698 144.668 37.8401C144.836 37.8401 144.921 37.9194 144.921 38.0781C144.921 38.1871 144.891 38.3161 144.831 38.4648C144.782 38.6036 144.712 38.7424 144.623 38.8813C144.544 39.0102 144.455 39.1292 144.355 39.2382C144.266 39.3473 144.182 39.4217 144.102 39.4613C144.033 39.4911 143.929 39.5159 143.79 39.5357C143.651 39.5555 143.463 39.5704 143.225 39.5803C142.987 39.5902 142.689 39.5952 142.333 39.5952C141.976 39.6051 141.554 39.6101 141.068 39.6101C140.305 39.6101 139.66 39.6051 139.135 39.5952C138.619 39.5952 138.138 39.5853 137.692 39.5654C137.632 39.5654 137.553 39.5407 137.454 39.4911C137.365 39.4415 137.32 39.3324 137.32 39.1639V29.8678C137.32 29.7389 137.36 29.6546 137.439 29.6149C137.528 29.5752 137.598 29.5554 137.647 29.5554C137.905 29.5455 138.158 29.5405 138.406 29.5405C138.664 29.5306 138.926 29.5257 139.194 29.5257C139.462 29.5157 139.744 29.5108 140.042 29.5108C140.349 29.5009 140.682 29.4959 141.038 29.4959C141.395 29.4959 141.743 29.4959 142.08 29.4959C142.427 29.4959 142.739 29.5009 143.017 29.5108C143.294 29.5207 143.532 29.5356 143.731 29.5554C143.929 29.5653 144.068 29.5852 144.147 29.6149C144.217 29.6447 144.286 29.7141 144.355 29.8231C144.435 29.9223 144.504 30.0413 144.564 30.1801C144.633 30.309 144.688 30.4478 144.727 30.5966C144.777 30.7354 144.802 30.8593 144.802 30.9684C144.802 31.137 144.707 31.2213 144.519 31.2213C144.331 31.2114 144.112 31.2014 143.865 31.1915C143.617 31.1816 143.354 31.1717 143.076 31.1618C142.808 31.1519 142.526 31.1469 142.228 31.1469C141.931 31.137 141.638 31.132 141.351 31.132Z" fill="#F1F1F1"/>
<path d="M149.209 13.3154V11.6729H148.65V11.3894H150.127V11.6729H149.564V13.3154H149.209Z" fill="#F1F1F1"/>
<path d="M150.372 13.3154V11.3894H150.791L151.404 12.6108L152.01 11.3894H152.429V13.3154H152.08V11.9886L151.536 13.0402H151.256L150.72 11.9865V13.3133L150.372 13.3154Z" fill="#F1F1F1"/>
</svg>
