<svg width="131" height="228" viewBox="0 0 131 228" fill="none" xmlns="http://www.w3.org/2000/svg">
<path d="M116.023 116.107C116.023 116.107 119.646 128.399 119.646 134.735C119.646 141.071 118.646 145.377 114.523 146.151C110.4 146.925 107.645 146.024 106.395 141.842C105.145 137.659 106.395 129.931 102.644 125.751C98.8925 121.571 112.76 98 112.76 98L116.023 116.107Z" fill="#EA792D"/>
<path d="M78.7477 156.672C78.7477 156.672 72.8832 170.356 53.8986 177.199C34.9141 184.043 29.5404 186.713 24.1698 183.789C18.7992 180.865 18.4241 172.373 24.1698 171.624C29.9155 170.876 54.2737 165.161 59.0191 160.094C63.7645 155.026 68.3973 144 68.3973 144H84.634L78.7477 156.672Z" fill="#EA792D"/>
<path d="M65.241 154.899C65.241 154.899 76.8575 170.229 69.6175 188.603C62.3776 206.976 61.4898 207.103 59.1264 208.876C56.7631 210.649 48.3853 207.354 48.0102 203.555C47.6351 199.756 57.7541 187.715 57.5665 182.774C57.379 177.833 52.4929 145.224 52.4929 145.224L59.7079 144L65.241 154.899Z" fill="#EA792D"/>
<path d="M129.829 47.2363L91.7945 50.658L71 29.3699L108.469 25L129.829 47.2363Z" fill="#FABE44"/>
<path d="M97.6841 144.39L34 151.224L56.6858 84.7018L121.698 79L97.6841 144.39Z" fill="#3333FF"/>
<path d="M34.8442 151.288L15 131.522L37.8546 65L57.5301 84.766L34.8442 151.288Z" fill="#336BFF"/>
<path d="M56.6754 85.1591L37 65.3932L103.326 62L121.688 79.4574L56.6754 85.1591Z" fill="#3355FF"/>
<path d="M70.3156 76.5741L52 55.0386L70.9252 29L91.7197 50.2881L70.3156 76.5741Z" fill="#FAC744"/>
<path d="M35.1356 91.0251C35.1356 91.0251 34.5104 112.564 38.8869 128.404C43.2634 144.244 40.7625 145.129 43.2634 149.181C45.7642 153.234 55.0049 152.73 55.505 146.521C56.0052 140.312 53.0042 125.997 50.6346 114.847C48.2651 103.697 52.132 89.1224 47.5086 84.4354C42.8851 79.7484 37.3301 82.5327 35.9234 86.8423C34.5167 91.152 35.1356 91.0251 35.1356 91.0251Z" fill="#EA792D"/>
<path d="M109.507 73.2447L71 76.7076L92.4041 50.4217L130.439 47L109.507 73.2447Z" fill="#EA792D"/>
<path d="M113.9 154.057C118.815 154.057 122.8 150.015 122.8 145.028C122.8 140.042 118.815 136 113.9 136C108.985 136 105 140.042 105 145.028C105 150.015 108.985 154.057 113.9 154.057Z" fill="#FAC744"/>
<path d="M49.8999 160.057C54.8152 160.057 58.7998 156.015 58.7998 151.028C58.7998 146.042 54.8152 142 49.8999 142C44.9846 142 41 146.042 41 151.028C41 156.015 44.9846 160.057 49.8999 160.057Z" fill="#FAC744"/>
<path d="M34.2146 205.789C40.501 201.612 40.486 190.31 34.1811 180.548C27.8763 170.785 17.669 166.257 11.3826 170.435C5.09615 174.613 5.11112 185.914 11.416 195.677C17.7209 205.44 27.9282 209.967 34.2146 205.789Z" fill="#FABE44"/>
<path d="M84.3622 212.044C84.8023 208.755 75.4065 204.746 63.3763 203.09C51.346 201.433 41.2368 202.756 40.7968 206.045C40.3567 209.334 49.7524 213.343 61.7827 214.999C73.813 216.656 83.9221 215.333 84.3622 212.044Z" fill="#FAC744"/>
<path d="M82.3622 222.044C82.8023 218.755 73.4065 214.746 61.3763 213.09C49.346 211.433 39.2368 212.756 38.7968 216.045C38.3567 219.334 47.7525 223.343 59.7827 224.999C71.813 226.656 81.9222 225.333 82.3622 222.044Z" fill="#FAC744"/>
<path d="M36.7983 200.638C42.8247 196.633 42.8107 185.8 36.767 176.441C30.7232 167.083 20.9384 162.743 14.9119 166.748C8.88542 170.753 8.89943 181.587 14.9432 190.945C20.9869 200.303 30.7718 204.643 36.7983 200.638Z" fill="#FAC744"/>
<path d="M40.8444 206L39 215.859L82.5648 221.862L84.4092 212.003L40.8444 206Z" fill="#FABE44"/>
<path d="M72.0868 45C70.6847 45.0006 69.3142 45.423 68.1487 46.2137C66.9832 47.0043 66.0749 48.1278 65.5388 49.4421C65.0027 50.7564 64.8627 52.2024 65.1366 53.5973C65.4105 54.9923 66.086 56.2735 67.0777 57.279C68.0694 58.2846 69.3327 58.9693 70.7079 59.2465C72.0831 59.5238 73.5085 59.3812 74.8038 58.8367C76.0991 58.2922 77.2063 57.3704 77.9852 56.1877C78.7641 55.005 79.1798 53.6146 79.1798 52.1922C79.1802 51.2474 78.997 50.3117 78.6407 49.4387C78.2843 48.5657 77.7618 47.7725 77.103 47.1045C76.4443 46.4365 75.6621 45.9068 74.8014 45.5457C73.9407 45.1846 73.0182 44.9992 72.0868 45ZM72.0868 57.2788C71.0975 57.2788 70.1305 56.9812 69.308 56.4237C68.4855 55.8662 67.8444 55.0738 67.4658 54.1466C67.0872 53.2195 66.9882 52.1993 67.1812 51.2151C67.3742 50.2308 67.8505 49.3267 68.55 48.6171C69.2495 47.9075 70.1408 47.4243 71.111 47.2285C72.0812 47.0328 73.0869 47.1332 74.0008 47.5173C74.9148 47.9013 75.6959 48.5516 76.2455 49.386C76.7951 50.2204 77.0885 51.2014 77.0885 52.2049C77.0885 53.5506 76.5615 54.8412 75.6235 55.7927C74.6855 56.7443 73.4133 57.2788 72.0868 57.2788Z" fill="white"/>
<path d="M96.9569 60.9703C98.0377 60.9703 98.9138 60.0815 98.9138 58.9852C98.9138 57.8888 98.0377 57 96.9569 57C95.8761 57 95 57.8888 95 58.9852C95 60.0815 95.8761 60.9703 96.9569 60.9703Z" fill="white"/>
<path d="M110.957 59.9703C112.038 59.9703 112.914 59.0815 112.914 57.9852C112.914 56.8888 112.038 56 110.957 56C109.876 56 109 56.8888 109 57.9852C109 59.0815 109.876 59.9703 110.957 59.9703Z" fill="white"/>
<path d="M100.498 63.2417C103.937 62.0684 106.325 65.4235 106.338 67.7797C106.338 69.1496 105.622 70.5037 104.684 69.768C103.581 68.9023 105.153 65.896 102.161 65.674C97.2504 65.3093 92.7082 72.4508 90.3199 71.3504C88.8194 70.6496 92.6613 65.9119 100.498 63.2417Z" fill="white"/>
<path d="M71.05 99.5529L68.0927 109.437C67.9887 109.785 67.9719 110.154 68.0438 110.51C68.1156 110.866 68.2738 111.198 68.5041 111.476C68.7344 111.755 69.0295 111.97 69.3627 112.104C69.6959 112.237 70.0566 112.284 70.4123 112.241L93.2137 109.45C93.6272 109.4 94.0175 109.229 94.3371 108.958C94.6567 108.688 94.892 108.329 95.0143 107.925L98.1029 97.8278C98.209 97.4782 98.2268 97.1073 98.1549 96.7489C98.0829 96.3905 97.9235 96.0562 97.6911 95.7766C97.4587 95.4969 97.1608 95.281 96.8247 95.1485C96.4887 95.0159 96.1253 94.9711 95.7677 95.0181L72.8474 98.0085C72.4324 98.0611 72.0414 98.2351 71.7222 98.5093C71.403 98.7836 71.1694 99.1462 71.05 99.5529Z" fill="#FAC744"/>
<path d="M96.7411 11.283C90.1764 4.17318 86 5.03257 86 5.03257C86 5.03257 99.1138 16.7945 97.2538 30.0849C96.0034 39.0276 95.0249 39.4018 97.6883 41.6153C100.814 44.2125 104.756 42.0847 105.313 40.7528C105.869 39.4209 107.285 22.7246 96.7411 11.283Z" fill="#336BFF"/>
<path d="M85.9357 7.98503C88.1093 7.98503 89.8714 6.19752 89.8714 3.99252C89.8714 1.78751 88.1093 0 85.9357 0C83.7621 0 82 1.78751 82 3.99252C82 6.19752 83.7621 7.98503 85.9357 7.98503Z" fill="#EA792D"/>
<path d="M87.0079 108.191C87.0517 108.727 87.5154 109.125 88.0436 109.08C88.5718 109.036 88.9645 108.566 88.9207 108.03L88.278 100.167C88.2342 99.631 87.7705 99.2326 87.2423 99.2771C86.7141 99.3215 86.3214 99.7919 86.3652 100.328L87.0079 108.191Z" fill="black"/>
<path d="M82.0079 109.191C82.0517 109.727 82.5154 110.125 83.0436 110.08C83.5718 110.036 83.9645 109.566 83.9207 109.03L83.278 101.167C83.2342 100.631 82.7705 100.233 82.2423 100.277C81.7141 100.322 81.3214 100.792 81.3652 101.328L82.0079 109.191Z" fill="black"/>
<path d="M77.0079 109.191C77.0517 109.727 77.5154 110.125 78.0436 110.08C78.5718 110.036 78.9645 109.566 78.9207 109.03L78.278 101.167C78.2342 100.631 77.7705 100.233 77.2423 100.277C76.7141 100.322 76.3214 100.792 76.3652 101.328L77.0079 109.191Z" fill="black"/>
</svg>
