<svg width="24" height="24" viewBox="0 0 24 24" fill="none" xmlns="http://www.w3.org/2000/svg">
<path d="M13.8733 4.11316C13.6821 4.45542 13.5118 4.8089 13.3633 5.17165C11.9033 4.94075 10.4161 4.94075 8.95608 5.17165C8.8075 4.8089 8.63719 4.45542 8.44608 4.11316C7.07081 4.34814 5.73385 4.76898 4.47193 5.3641C2.21537 8.62068 1.192 12.5743 1.58514 16.5167C3.05571 17.6223 4.7062 18.4654 6.46382 19.009C6.86404 18.4803 7.22122 17.9204 7.53193 17.3347C6.95849 17.1232 6.40733 16.8557 5.88646 16.536C6.02932 16.4409 6.16446 16.3348 6.29061 16.2184C7.80951 16.9501 9.47375 17.33 11.1597 17.33C12.8456 17.33 14.5098 16.9501 16.0287 16.2184C16.1634 16.3339 16.2982 16.4398 16.4329 16.536C15.9092 16.8532 15.3586 17.1237 14.7874 17.3443C15.0852 17.9433 15.4329 18.5163 15.8266 19.0571C17.5821 18.5154 19.2297 17.672 20.6957 16.5649C21.0983 12.6217 20.0741 8.66484 17.8089 5.41222C16.5612 4.80477 15.2374 4.36784 13.8733 4.11316V4.11316ZM7.96495 14.265C7.48342 14.2305 7.034 14.0107 6.71104 13.6519C6.38809 13.293 6.21671 12.823 6.23288 12.3405C6.21427 11.8574 6.3848 11.386 6.70825 11.0267C7.03169 10.6673 7.48253 10.4482 7.96495 10.416C8.44737 10.4482 8.89821 10.6673 9.22166 11.0267C9.5451 11.386 9.71564 11.8574 9.69703 12.3405C9.71564 12.8237 9.5451 13.295 9.22166 13.6544C8.89821 14.0138 8.44737 14.2328 7.96495 14.265V14.265ZM14.3544 14.265C13.8729 14.2305 13.4234 14.0107 13.1005 13.6519C12.7775 13.293 12.6061 12.823 12.6223 12.3405C12.6037 11.8574 12.7742 11.386 13.0977 11.0267C13.4211 10.6673 13.872 10.4482 14.3544 10.416C14.8377 10.4458 15.29 10.6642 15.6139 11.0241C15.9379 11.384 16.1076 11.8567 16.0865 12.3405C16.1076 12.8243 15.9379 13.297 15.6139 13.6569C15.29 14.0169 14.8377 14.2352 14.3544 14.265V14.265Z" fill="white"/>
</svg>
