<svg width="24" height="25" viewBox="0 0 24 25" fill="none" xmlns="http://www.w3.org/2000/svg">
<path d="M20.6454 8.68059C20.6357 7.95179 20.4993 7.23024 20.2423 6.54821C20.0193 5.97292 19.6789 5.45046 19.2426 5.0142C18.8064 4.57794 18.2839 4.23748 17.7086 4.01457C17.0354 3.76184 16.3241 3.62518 15.6051 3.61042C14.6794 3.56904 14.3859 3.5575 12.0361 3.5575C9.68622 3.5575 9.38503 3.5575 8.46607 3.61042C7.74741 3.62529 7.03648 3.76195 6.36352 4.01457C5.78814 4.23732 5.2656 4.57773 4.82932 5.01401C4.39304 5.45029 4.05263 5.97283 3.82988 6.54821C3.57664 7.22096 3.44028 7.93205 3.42669 8.65076C3.38531 9.57742 3.3728 9.87091 3.3728 12.2208C3.3728 14.5706 3.3728 14.8708 3.42669 15.7908C3.44112 16.5105 3.5768 17.2207 3.82988 17.8952C4.05301 18.4704 4.39367 18.9928 4.83009 19.4289C5.26652 19.865 5.78911 20.2052 6.36448 20.4279C7.0356 20.6908 7.74665 20.8372 8.46703 20.8609C9.39369 20.9023 9.68718 20.9148 12.037 20.9148C14.3869 20.9148 14.6881 20.9148 15.607 20.8609C16.326 20.8468 17.0373 20.7104 17.7105 20.4577C18.2857 20.2346 18.808 19.894 19.2442 19.4578C19.6805 19.0216 20.021 18.4992 20.2442 17.9241C20.4973 17.2505 20.6329 16.5404 20.6474 15.8196C20.6887 14.8939 20.7013 14.6004 20.7013 12.2496C20.6993 9.89978 20.6993 9.60148 20.6454 8.68059V8.68059ZM12.0303 16.6645C9.57267 16.6645 7.58175 14.6736 7.58175 12.2159C7.58175 9.75832 9.57267 7.7674 12.0303 7.7674C13.2101 7.7674 14.3416 8.23609 15.1759 9.07035C16.0102 9.90461 16.4788 11.0361 16.4788 12.2159C16.4788 13.3958 16.0102 14.5273 15.1759 15.3615C14.3416 16.1958 13.2101 16.6645 12.0303 16.6645V16.6645ZM16.6559 8.64017C16.5196 8.6403 16.3847 8.61356 16.2588 8.56147C16.1329 8.50939 16.0185 8.43298 15.9221 8.33663C15.8258 8.24028 15.7494 8.12588 15.6973 7.99997C15.6452 7.87406 15.6184 7.73911 15.6186 7.60285C15.6186 7.46669 15.6454 7.33187 15.6975 7.20607C15.7496 7.08028 15.826 6.96598 15.9223 6.8697C16.0185 6.77342 16.1328 6.69704 16.2586 6.64494C16.3844 6.59283 16.5193 6.56601 16.6554 6.56601C16.7916 6.56601 16.9264 6.59283 17.0522 6.64494C17.178 6.69704 17.2923 6.77342 17.3886 6.8697C17.4849 6.96598 17.5612 7.08028 17.6133 7.20607C17.6654 7.33187 17.6923 7.46669 17.6923 7.60285C17.6923 8.17636 17.2284 8.64017 16.6559 8.64017Z" fill="white"/>
<path d="M12.6776 15.7519C14.2736 15.7519 15.5673 14.4581 15.5673 12.8622C15.5673 11.2663 14.2736 9.97253 12.6776 9.97253C11.0817 9.97253 9.78796 11.2663 9.78796 12.8622C9.78796 14.4581 11.0817 15.7519 12.6776 15.7519Z" fill="white"/>
</svg>
