<svg width="23" height="24" viewBox="0 0 23 24" fill="none" xmlns="http://www.w3.org/2000/svg">
<path opacity="0.2" d="M11.4142 23.2799C17.7181 23.2799 22.8285 18.1696 22.8285 11.8657C22.8285 5.56174 17.7181 0.451416 11.4142 0.451416C5.11033 0.451416 0 5.56174 0 11.8657C0 18.1696 5.11033 23.2799 11.4142 23.2799Z" fill="#FCFC03"/>
<path d="M14.6534 11.4469L16.6167 10.468L17.2939 8.3906L15.9401 7.40552H6.92635L4.84204 8.9537H15.4372L14.8748 10.6956H10.6253L10.2164 11.9691H14.4653L13.272 15.6355L15.2629 14.6498L15.9727 12.452L14.6396 11.4731L14.6534 11.4469Z" fill="#FCFC03"/>
<path d="M7.83761 14.0587L9.06481 10.2394L7.7041 9.22046L5.65991 15.6339H13.2729L13.7827 14.0594L7.83761 14.0587Z" fill="#FCFC03"/>
</svg>
