<svg width="33" height="34" viewBox="0 0 33 34" fill="none" xmlns="http://www.w3.org/2000/svg">
<path opacity="0.1" d="M16.5 33.3599C25.6127 33.3599 33 26.0039 33 16.9299C33 7.85593 25.6127 0.5 16.5 0.5C7.3873 0.5 1.37117e-09 7.85593 3.0626e-09 16.9299C4.75403e-09 26.0039 7.3873 33.3599 16.5 33.3599Z" fill="#3AB83A"/>
<mask id="mask0_10889_27060" style="mask-type:luminance" maskUnits="userSpaceOnUse" x="0" y="-8" width="33" height="34">
<path d="M16.5 25.3599C25.6127 25.3599 33 18.0039 33 8.92994C33 -0.144068 25.6127 -7.5 16.5 -7.5C7.3873 -7.5 1.37117e-09 -0.144068 3.0626e-09 8.92994C4.75403e-09 18.0039 7.3873 25.3599 16.5 25.3599Z" fill="white"/>
</mask>
<g mask="url(#mask0_10889_27060)">
<path fill-rule="evenodd" clip-rule="evenodd" d="M11 16.469L16.0205 13.2193L21 16.4892L15.9986 7.47021L11 16.469ZM11.1912 17.4076L16.0257 14.2354L20.7973 17.3841L16.0285 20.5597L11.1912 17.4076ZM11 18.3155C12.762 19.466 14.6005 20.6703 16.0205 21.6021L21 18.3155C19.197 21.6088 17.6949 24.3505 16.0205 27.3849L14.9937 25.5315L14.9937 25.5314C13.6143 23.0419 12.1918 20.4745 11 18.3155Z" fill="#3AB83A"/>
<path fill-rule="evenodd" clip-rule="evenodd" d="M15.9998 7.47021L16.0185 13.2193L20.9998 16.4892L15.9998 7.47021ZM16.0232 14.2354L20.8263 17.3841L16.0255 20.5597L16.0232 14.2354ZM16.0187 21.6021L21 18.3155C19.4549 21.6088 16.0187 27.3849 16.0187 27.3849L16.0187 21.6021Z" fill="#0B8311"/>
</g>
</svg>
