<svg width="23" height="24" viewBox="0 0 23 24" fill="none" xmlns="http://www.w3.org/2000/svg">
<path opacity="0.2" d="M11.4142 23.6229C17.7181 23.6229 22.8285 18.5126 22.8285 12.2087C22.8285 5.90476 17.7181 0.794434 11.4142 0.794434C5.11033 0.794434 0 5.90476 0 12.2087C0 18.5126 5.11033 23.6229 11.4142 23.6229Z" fill="white"/>
<g clip-path="url(#clip0_10890_27366)">
<path d="M12.3383 13.5676L12.3397 13.5662L12.3369 13.5683L12.3383 13.5676ZM12.3369 13.5683C9.98492 14.2739 8.03896 15.304 6.82006 16.5097L6.7661 16.5637C7.09054 16.8702 7.44542 17.1448 7.83005 17.3772L7.91237 17.2762C9.14312 15.7752 10.6438 14.5176 12.3369 13.5683ZM12.6088 12.5217H4.84229C4.9326 13.7429 5.38383 14.9097 6.13867 15.874L6.17187 15.8401C6.92659 15.0964 7.90822 14.4206 9.09323 13.8319C10.1316 13.3151 11.3235 12.8717 12.6088 12.5217ZM9.63142 7.34791C11.717 9.43418 14.3909 10.8326 17.2942 11.3553C16.9428 8.2479 14.296 5.83154 11.0793 5.83154C10.2565 5.83147 9.44169 5.9927 8.68093 6.3061C8.98047 6.6672 9.30145 7.01793 9.63142 7.34791ZM6.82006 7.60456C8.03896 8.81239 9.98561 9.84105 12.3383 10.5487C11.107 9.85657 9.97477 9.00143 8.97217 8.00647C8.60207 7.63845 8.2458 7.24553 7.91099 6.83876L7.82867 6.73776C7.44655 6.9698 7.09054 7.24232 6.7668 7.5506L6.82006 7.60456ZM9.63142 16.7664C9.29937 17.0964 8.97977 17.4478 8.68093 17.8089C9.44169 18.1223 10.2565 18.2835 11.0793 18.2834C14.296 18.2834 16.9428 15.8664 17.2942 12.7583C14.3914 13.2813 11.718 14.6797 9.63281 16.7657L9.63142 16.7664ZM9.09184 10.281V10.2824C7.90822 9.69302 6.92659 9.01646 6.17256 8.27419L6.13797 8.24099C5.38351 9.20513 4.93253 10.3717 4.84229 11.5926H12.6074C11.3228 11.2426 10.1316 10.7992 9.09184 10.281Z" fill="white"/>
</g>
<defs>
<clipPath id="clip0_10890_27366">
<rect width="16.6025" height="16.6025" fill="white" transform="translate(2.76709 3.65869)"/>
</clipPath>
</defs>
</svg>
