<svg width="112" height="72" viewBox="0 0 112 72" fill="none" xmlns="http://www.w3.org/2000/svg">
<path d="M104 20H51C46.5817 20 43 23.5817 43 28V63.5C43 67.9183 46.5817 71.5 51 71.5H104C108.418 71.5 112 67.9183 112 63.5V28C112 23.5817 108.418 20 104 20Z" fill="white"/>
<g filter="url(#filter0_d_4066_60922)">
<path d="M70 5H17C12.5817 5 9 8.58172 9 13V48.5C9 52.9183 12.5817 56.5 17 56.5H70C74.4183 56.5 78 52.9183 78 48.5V13C78 8.58172 74.4183 5 70 5Z" fill="white"/>
</g>
<defs>
<filter id="filter0_d_4066_60922" x="0" y="0" width="87" height="69.5" filterUnits="userSpaceOnUse" color-interpolation-filters="sRGB">
<feFlood flood-opacity="0" result="BackgroundImageFix"/>
<feColorMatrix in="SourceAlpha" type="matrix" values="0 0 0 0 0 0 0 0 0 0 0 0 0 0 0 0 0 0 127 0" result="hardAlpha"/>
<feOffset dy="4"/>
<feGaussianBlur stdDeviation="4.5"/>
<feComposite in2="hardAlpha" operator="out"/>
<feColorMatrix type="matrix" values="0 0 0 0 0 0 0 0 0 0 0 0 0 0 0 0 0 0 0.25 0"/>
<feBlend mode="normal" in2="BackgroundImageFix" result="effect1_dropShadow_4066_60922"/>
<feBlend mode="normal" in="SourceGraphic" in2="effect1_dropShadow_4066_60922" result="shape"/>
</filter>
</defs>
</svg>
