<svg width="40" height="30" viewBox="0 0 40 30" fill="none" xmlns="http://www.w3.org/2000/svg">
<path d="M20.0005 3.12C24.643 3.12 28.8155 4.7225 31.6255 7.605C33.9376 7.9057 36.1188 8.8499 37.9205 10.33C34.768 3.705 28.238 0 20.0005 0C11.8755 0 5.30047 3.7 2.11047 10.305C3.76231 8.95678 5.73277 8.05548 7.83297 7.6875C10.5905 4.68 14.9355 3.12 20.0005 3.12Z" fill="white"/>
<path d="M30.0006 30C27.3993 30.003 24.8998 28.9892 23.0356 27.175L23.0306 27.17C22.8151 27.0081 22.584 26.8682 22.3406 26.7525C21.6079 26.4124 20.8083 26.2407 20.0006 26.25C18.9656 26.25 18.1781 26.5075 17.6631 26.7525C17.4188 26.8681 17.1868 27.008 16.9706 27.17L16.9656 27.175C15.7901 28.3161 14.3523 29.151 12.7785 29.6062C11.2048 30.0614 9.54329 30.123 7.94015 29.7855C6.33701 29.4481 4.84133 28.7219 3.58463 27.6709C2.32793 26.6199 1.34869 25.2762 0.733016 23.7581C0.117345 22.2399 -0.1159 20.5937 0.0537895 18.9642C0.223479 17.3348 0.790905 15.7719 1.70618 14.4132C2.62145 13.0544 3.85653 11.9414 5.30282 11.1718C6.74911 10.4023 8.36232 9.9999 10.0006 10H30.0006C32.6528 10 35.1963 11.0536 37.0717 12.9289C38.947 14.8043 40.0006 17.3478 40.0006 20C40.0006 22.6522 38.947 25.1957 37.0717 27.0711C35.1963 28.9464 32.6528 30 30.0006 30Z" fill="white"/>
</svg>
