<svg width="156" height="156" viewBox="0 0 156 156" fill="none" xmlns="http://www.w3.org/2000/svg">
<path d="M69.9714 15.8487C73.3032 9.27156 82.6968 9.27155 86.0286 15.8487L94.1448 31.8704C95.9814 35.4959 100.02 37.4407 103.999 36.6161L121.586 32.9723C128.806 31.4764 134.662 38.8206 131.598 45.5263L124.132 61.8612C122.442 65.5576 123.44 69.9275 126.566 72.5247L140.38 84.0026C146.05 88.7145 143.96 97.8725 136.806 99.6573L119.38 104.005C115.437 104.989 112.643 108.493 112.561 112.556L112.2 130.513C112.052 137.884 103.589 141.96 97.7329 137.48L83.4689 126.566C80.2411 124.097 75.7589 124.097 72.5311 126.566L58.2671 137.48C52.4115 141.96 43.9482 137.884 43.8 130.513L43.4391 112.556C43.3575 108.493 40.5628 104.989 36.6196 104.005L19.1935 99.6573C12.0399 97.8725 9.94959 88.7145 15.6205 84.0026L29.4344 72.5247C32.5603 69.9275 33.5577 65.5576 31.8683 61.8612L24.4024 45.5263C21.3376 38.8206 27.1943 31.4764 34.4139 32.9723L52.0006 36.6161C55.9802 37.4407 60.0186 35.4959 61.8552 31.8704L69.9714 15.8487Z" fill="#FAC744"/>
<path d="M77.6497 48C65.1361 48 55 58.9808 55 72.5232C55 82.9703 61.0422 91.8981 69.5315 95.4203L66.8699 98.2895C66.1509 99.0805 66.1625 100.349 66.8989 101.127C67.0613 101.297 67.2526 101.435 67.4614 101.535C68.1514 101.837 68.9401 101.667 69.4677 101.096L73.5848 96.6383C74.9301 96.9145 76.2928 97.0464 77.6555 97.0464C90.1691 97.0464 100.305 86.0656 100.305 72.5232C100.299 58.9808 90.1633 48 77.6497 48ZM58.485 72.5232C58.485 61.0778 67.0787 51.7796 77.6439 51.7796C78.102 51.7796 78.5659 51.7921 79.024 51.8423L65.455 66.5462C61.1756 71.1859 60.7465 75.3484 64.1735 79.0527C66.7423 81.834 71.1667 80.6034 77.4525 75.3673C83.7441 70.1437 87.4379 68.1346 88.5396 69.3275C90.256 71.1859 89.8211 73.4963 87.2697 76.2713L72.2743 92.4443C64.3243 89.9142 58.485 81.947 58.485 72.5232ZM77.6497 93.2668C77.3424 93.2668 77.0234 93.2542 76.7161 93.2354L89.8269 79.0401C94.1122 74.4067 94.5355 70.2379 91.1084 66.5336C88.5396 63.7586 84.1152 64.9829 77.8294 70.219C71.5553 75.4426 67.8441 77.4705 66.7423 76.2588C65.0259 74.4004 65.455 72.0837 68.0239 69.3149L83.3672 52.7088C91.149 55.3519 96.8144 63.2312 96.8144 72.5169C96.8144 83.9686 88.2091 93.2668 77.6497 93.2668Z" fill="#F1F1F1"/>
<path d="M65.9702 103.744C64.9867 103.744 64.1903 104.703 64.1849 105.887C64.1849 107.07 64.9814 108.029 65.9649 108.035C66.9484 108.035 67.7449 107.077 67.7502 105.893C67.7502 105.327 67.5631 104.78 67.2264 104.375C66.895 103.97 66.446 103.744 65.9702 103.744Z" fill="#F1F1F1"/>
</svg>
